<svg width="19" height="15" viewBox="0 0 19 15" fill="none" xmlns="http://www.w3.org/2000/svg">
<path fill-rule="evenodd" clip-rule="evenodd" d="M18.9972 11.9783C18.9972 13.6469 17.6763 15 16.0459 15H0.0230713V3.05571C0.0230713 1.38656 1.34419 0.0335083 2.97463 0.0335083H18.9972V11.9783Z" fill="white"/>
<path fill-rule="evenodd" clip-rule="evenodd" d="M17.9391 1.01702V1.01694V1.01702ZM17.9391 1.01702H17.9188H17.8985H17.8781H17.8578H17.8374H17.8171H17.7966H17.7764H17.756H17.7356H17.7154H17.695H17.6746H17.6543H17.6339H17.6136H17.5932H17.5728H17.5525H17.5322H17.5118H17.4915H17.4711H17.4507H17.4304H17.4101H17.3897H17.3694H17.349H17.3287H17.3083H17.2879H17.2676H17.2473H17.2269H17.2066H17.1862H17.1658H17.1456H17.1252H17.1048H17.0845H17.0641H17.0438H17.0234H17.0031H16.9827H16.9623H16.942H16.9217H16.9013H16.881H16.8607H16.8403H16.8199H16.7996H16.7792H16.7589H16.7386H16.7181H16.6978H16.6775H16.6571H16.6368H16.6165H16.596H16.5757H16.5554H16.535H16.5147H16.4944H16.474H16.4536H16.4333H16.4129H16.3926H16.3723H16.3519H16.3315H16.3112H16.2909H16.2705H16.2502H16.2298H16.2094H16.1891H16.1688H16.1484H16.128H16.1077H16.0873H16.067H16.0467H16.0263H16.0059H15.9856H15.9652H15.9449H15.9246H15.9042H15.8839H15.8635H15.8431H15.8228H15.8024H15.7821H15.7618H15.7413H15.7211H15.7007H15.6803H15.6601H15.6397H15.6193H15.599H15.5786H15.5582H15.538H15.5175H15.4972H15.4769H15.4565H15.4362H15.4158H15.3955H15.3751H15.3547H15.3344H15.3141H15.2937H15.2734H15.253H15.2326H15.2123H15.192H15.1716H15.1513H15.1309H15.1105H15.0903H15.0699H15.0495H15.0292H15.0088H14.9884H14.9681H14.9478H14.9274H14.9071H14.8867H14.8664H14.8511L14.846 1.01711C14.8392 1.01711 14.8325 1.01728 14.8257 1.01728C14.8189 1.01736 14.8121 1.01745 14.8054 1.01762C14.7986 1.01778 14.7918 1.01812 14.785 1.01821L14.7647 1.01906C14.7579 1.01939 14.7511 1.01956 14.7443 1.0199C14.7375 1.02033 14.7307 1.02084 14.7239 1.02117C14.7171 1.02168 14.7103 1.02202 14.7036 1.02262L14.6833 1.02414L14.6629 1.02592C14.6561 1.0266 14.6493 1.02719 14.6425 1.02787C14.6358 1.02855 14.629 1.02939 14.6222 1.03016L14.6018 1.03253C14.595 1.03338 14.5882 1.03406 14.5815 1.03499C14.5748 1.03592 14.568 1.03702 14.5612 1.03795C14.5544 1.03889 14.5475 1.03982 14.5408 1.04092C14.5339 1.04185 14.5272 1.04304 14.5205 1.04414L14.5001 1.04762C14.4933 1.04872 14.4865 1.04982 14.4797 1.05109C14.4729 1.05236 14.4662 1.0538 14.4594 1.05507C14.4526 1.05643 14.4458 1.05778 14.4391 1.05914L14.4187 1.06338L14.3983 1.06795C14.3915 1.06948 14.3848 1.07092 14.378 1.07253C14.3712 1.07414 14.3644 1.07592 14.3576 1.07753C14.3509 1.07923 14.3441 1.08092 14.3373 1.0827L14.317 1.08804C14.3101 1.08982 14.3034 1.09185 14.2966 1.09363C14.2899 1.09558 14.283 1.09745 14.2763 1.09939C14.2694 1.10134 14.2626 1.10346 14.2559 1.10558C14.2491 1.10762 14.2423 1.10965 14.2356 1.11177C14.2288 1.11397 14.222 1.11617 14.2152 1.11838L14.1948 1.12507C14.1881 1.12736 14.1813 1.12965 14.1746 1.13202C14.1677 1.13439 14.161 1.13694 14.1541 1.13939C14.1473 1.14177 14.1405 1.14414 14.1337 1.14668C14.127 1.14923 14.1203 1.15185 14.1135 1.15456L14.0931 1.16245L14.0727 1.17067C14.066 1.17346 14.0592 1.17626 14.0525 1.17914C14.0457 1.18202 14.0388 1.18482 14.032 1.1877C14.0252 1.19067 14.0184 1.1938 14.0117 1.19685C14.0049 1.1999 13.9982 1.20287 13.9914 1.20592C13.9846 1.20914 13.9778 1.21236 13.971 1.21558C13.9642 1.2188 13.9574 1.22202 13.9507 1.22533L13.9304 1.23541C13.9235 1.2388 13.9167 1.24228 13.9099 1.24575C13.9031 1.24923 13.8964 1.2527 13.8896 1.25626C13.8828 1.25982 13.876 1.26363 13.8693 1.26728C13.8625 1.27092 13.8556 1.27456 13.8489 1.27829C13.8421 1.28211 13.8354 1.28609 13.8286 1.28999C13.8218 1.29389 13.8149 1.2977 13.8082 1.3016C13.8014 1.30567 13.7947 1.30973 13.7879 1.31389C13.7811 1.31787 13.7743 1.32202 13.7675 1.32617C13.7607 1.33041 13.7539 1.33465 13.7471 1.33897L13.7268 1.35202C13.72 1.35643 13.7133 1.36092 13.7065 1.36541L13.6861 1.37914L13.6658 1.39329C13.659 1.39795 13.6522 1.40287 13.6454 1.4077L13.625 1.42245C13.6182 1.42753 13.6115 1.43262 13.6048 1.4377C13.598 1.44287 13.5912 1.44804 13.5844 1.45329L13.564 1.46923L13.5437 1.48567C13.5369 1.49109 13.5301 1.49677 13.5233 1.50236C13.5165 1.50804 13.5097 1.51389 13.5029 1.51965C13.4962 1.52541 13.4895 1.53134 13.4827 1.53728C13.4758 1.54321 13.4691 1.54931 13.4623 1.55541C13.4555 1.5616 13.4486 1.5677 13.4419 1.57389C13.4351 1.58024 13.4283 1.58668 13.4216 1.59312C13.4148 1.59956 13.4079 1.606 13.4012 1.61245C13.3943 1.61914 13.3876 1.626 13.3809 1.63278C13.3741 1.63965 13.3672 1.64651 13.3606 1.65346C13.3537 1.66041 13.3469 1.66753 13.3402 1.67473C13.3333 1.68194 13.3266 1.68923 13.3199 1.69651C13.313 1.70397 13.3062 1.71143 13.2995 1.71897C13.2926 1.7266 13.2859 1.73431 13.2791 1.74211C13.2723 1.74999 13.2655 1.75778 13.2588 1.76567C13.2519 1.77389 13.2451 1.78211 13.2384 1.79041C13.2316 1.79872 13.2248 1.80719 13.2181 1.81567C13.2113 1.82423 13.2044 1.83278 13.1978 1.84151C13.1908 1.85041 13.1841 1.85948 13.1774 1.86855C13.1705 1.87778 13.1637 1.88702 13.157 1.89643C13.1503 1.90584 13.1434 1.91533 13.1367 1.92499C13.1297 1.9349 13.123 1.9449 13.1163 1.9549C13.1094 1.96516 13.1027 1.9755 13.096 1.98592C13.0892 1.99643 13.0823 2.00711 13.0757 2.01778C13.0687 2.0288 13.0619 2.03999 13.0552 2.05117C13.0484 2.06278 13.0417 2.07439 13.035 2.08609C13.0281 2.09812 13.0213 2.11033 13.0146 2.12245C13.0076 2.13516 13.0009 2.14778 12.9942 2.16058C12.9873 2.1738 12.9806 2.18711 12.9739 2.2005C12.967 2.21448 12.9601 2.22846 12.9536 2.24253C12.9466 2.25736 12.9398 2.27219 12.9331 2.28719C12.9262 2.30295 12.9195 2.3188 12.9129 2.33482C12.9058 2.35168 12.8991 2.3688 12.8925 2.38584C12.8854 2.40423 12.8787 2.4227 12.8721 2.44134C12.8651 2.46126 12.8583 2.48151 12.8518 2.50177C12.8447 2.52406 12.8379 2.54643 12.8315 2.56897C12.8242 2.59414 12.8174 2.61965 12.8111 2.64516C12.8037 2.67516 12.7969 2.70524 12.7907 2.73575C12.762 2.87778 12.7468 3.02499 12.7468 3.17584V5.41745H12.7907H12.8111H12.8315H12.8518H12.8721H12.8925H12.9129H12.9331H12.9536H12.9739H12.9942H13.0146H13.035H13.0552H13.0757H13.096H13.1163H13.1367H13.157H13.1774H13.1978H13.2181H13.2384H13.2588H13.2791H13.2995H13.3199H13.3402H13.3606H13.3809H13.4012H13.4216H13.4419H13.4623H13.4827H13.5029H13.5233H13.5437H13.564H13.5844H13.6048H13.625H13.6454H13.6658H13.6861H13.7065H13.7268H13.7471H13.7675H13.7879H13.8082H13.8286H13.8489H13.8693H13.8896H13.9099H13.9304H13.9507H13.971H13.9914H14.0117H14.032H14.0525H14.0727H14.0931H14.1135H14.1337H14.1541H14.1746H14.1948H14.2152H14.2356H14.2559H14.2763H14.2966H14.317H14.3373H14.3576H14.378H14.3983H14.4187H14.4391H14.4594H14.4797H14.5001H14.5205H14.5408H14.5612H14.5815H14.6018H14.6222H14.6425H14.6629H14.6833H14.7036H14.7239H14.7443H14.7647H14.785H14.8054H14.8257H14.846H14.8664H14.8867H14.9071H14.9274H14.9478H14.9681H14.9884H15.0088H15.0292H15.0495H15.0699H15.0903H15.1105H15.1309H15.1513H15.1716H15.192H15.2123H15.2326H15.253H15.2734H15.2937H15.3141H15.3344H15.3547H15.3751H15.3955H15.4158H15.4362H15.4565H15.4769H15.4972H15.5175H15.538H15.5582H15.5786H15.599H15.6193H15.6397H15.6601H15.6803H15.7007H15.7211H15.7302H15.7413L15.7618 5.4177L15.7821 5.41821L15.8024 5.41889L15.8228 5.41965L15.8431 5.4205L15.8635 5.42151L15.8839 5.42261L15.9042 5.42372L15.9246 5.42499L15.9368 5.42584L15.9449 5.42626L15.9652 5.42736L15.9856 5.42889L16.0059 5.4305L16.0263 5.43236L16.0467 5.43439L16.067 5.43668L16.0873 5.43914L16.1077 5.44185L16.128 5.44482L16.1484 5.44795C16.1552 5.44914 16.162 5.45024 16.1688 5.45151L16.1891 5.45516C16.1958 5.45634 16.2027 5.4577 16.2094 5.45897C16.2163 5.46033 16.2231 5.46177 16.2298 5.46321L16.2502 5.4677C16.2569 5.46922 16.2637 5.47075 16.2705 5.47228C16.2773 5.47397 16.2841 5.47567 16.2909 5.47736L16.3112 5.4827C16.318 5.48448 16.3248 5.48626 16.3315 5.48821C16.3384 5.49007 16.3452 5.49202 16.3519 5.49397C16.3587 5.496 16.3655 5.49812 16.3723 5.50024C16.379 5.50236 16.3858 5.50448 16.3926 5.50668C16.3994 5.50897 16.4062 5.51117 16.4129 5.51355C16.4198 5.51583 16.4266 5.51821 16.4333 5.52067C16.4401 5.52321 16.4469 5.52575 16.4536 5.52821C16.4605 5.53083 16.4672 5.53346 16.474 5.53617C16.4808 5.53889 16.4876 5.54168 16.4944 5.54439C16.5012 5.54728 16.5079 5.55016 16.5147 5.55312C16.5215 5.55609 16.5282 5.55906 16.535 5.56219C16.5419 5.56524 16.5487 5.56846 16.5554 5.5716C16.5623 5.5749 16.5691 5.57829 16.5757 5.58168C16.5825 5.58516 16.5893 5.58863 16.596 5.59211C16.6029 5.59575 16.6097 5.59939 16.6165 5.60312C16.6234 5.60685 16.6301 5.61067 16.6368 5.61456C16.6436 5.61855 16.6504 5.62253 16.6571 5.6266C16.664 5.63075 16.6708 5.6349 16.6775 5.63923C16.6844 5.64355 16.6911 5.64795 16.6978 5.65245C16.7046 5.65702 16.7114 5.66168 16.7181 5.66634C16.725 5.67126 16.7319 5.676 16.7386 5.681C16.7454 5.68609 16.7522 5.69117 16.7589 5.69643C16.7657 5.70177 16.7725 5.70728 16.7792 5.7127C16.7861 5.71838 16.7929 5.72406 16.7996 5.7299C16.8064 5.73584 16.8133 5.74194 16.8199 5.74804C16.8268 5.75439 16.8336 5.76075 16.8403 5.76736C16.8472 5.77406 16.854 5.78083 16.8607 5.78778C16.8675 5.7949 16.8744 5.80219 16.881 5.80948C16.8879 5.81711 16.8947 5.8249 16.9013 5.83278C16.9083 5.841 16.915 5.84939 16.9217 5.85795C16.9287 5.86677 16.9355 5.87583 16.942 5.88499C16.949 5.89473 16.9558 5.90448 16.9623 5.91448C16.9694 5.92507 16.9761 5.93592 16.9827 5.94685C16.9898 5.95872 16.9966 5.97067 17.0031 5.98278C17.0101 5.99617 17.0169 6.00965 17.0234 6.02338C17.0307 6.0388 17.0375 6.05448 17.0438 6.07041C17.0511 6.08906 17.0579 6.10787 17.0641 6.12719C17.0719 6.15126 17.0786 6.176 17.0845 6.20134C17.0938 6.24185 17.1006 6.28372 17.1048 6.32711C17.1081 6.36109 17.1098 6.39592 17.1098 6.43168C17.1098 6.46541 17.1081 6.49897 17.1048 6.53202C17.1007 6.57389 17.0939 6.61507 17.0845 6.65541C17.0787 6.68033 17.0719 6.70482 17.0641 6.72906C17.0579 6.74829 17.0511 6.76728 17.0438 6.78592C17.0375 6.80202 17.0307 6.81787 17.0234 6.83363C17.017 6.84753 17.0102 6.86126 17.0031 6.8749C16.9966 6.88728 16.9898 6.89956 16.9827 6.9116C16.9762 6.92287 16.9694 6.9338 16.9623 6.94473C16.9558 6.95507 16.949 6.96507 16.942 6.97507C16.9355 6.98456 16.9287 6.99389 16.9217 7.00312C16.915 7.01177 16.9083 7.02041 16.9013 7.02897C16.8947 7.03711 16.8879 7.04507 16.881 7.05312C16.8744 7.06075 16.8676 7.06821 16.8607 7.07566C16.854 7.08287 16.8472 7.0899 16.8403 7.09685C16.8336 7.10363 16.8268 7.11024 16.8199 7.11677C16.8133 7.12321 16.8065 7.12956 16.7996 7.13575C16.7929 7.14177 16.7861 7.1477 16.7792 7.15355C16.7725 7.15931 16.7657 7.16482 16.7589 7.17041C16.7522 7.17584 16.7454 7.18117 16.7386 7.18643C16.7319 7.19151 16.7251 7.1966 16.7181 7.2016C16.7114 7.20651 16.7046 7.21134 16.6978 7.21609C16.6911 7.22075 16.6844 7.22533 16.6775 7.22982C16.6708 7.23422 16.664 7.23863 16.6571 7.24287C16.6504 7.24711 16.6436 7.25126 16.6368 7.25541C16.6301 7.25939 16.6234 7.26329 16.6165 7.26719C16.6098 7.27109 16.6029 7.27482 16.596 7.27855C16.5893 7.28219 16.5825 7.28583 16.5757 7.28931C16.5691 7.29287 16.5623 7.29626 16.5554 7.29965C16.5487 7.30287 16.5419 7.30617 16.535 7.30939C16.5282 7.31261 16.5215 7.31567 16.5147 7.31872C16.5079 7.32177 16.5012 7.32465 16.4944 7.32753C16.4876 7.33041 16.4808 7.33329 16.474 7.336C16.4672 7.33863 16.4605 7.34134 16.4536 7.34397C16.4469 7.34651 16.4401 7.34906 16.4333 7.3516C16.4266 7.35397 16.4198 7.35643 16.4129 7.3588C16.4062 7.36117 16.3995 7.36346 16.3926 7.36566C16.3859 7.36787 16.379 7.37007 16.3723 7.37219C16.3655 7.37431 16.3587 7.37626 16.3519 7.37829C16.3452 7.38033 16.3384 7.38219 16.3315 7.38414C16.3248 7.38592 16.318 7.38787 16.3112 7.38965C16.3044 7.39134 16.2977 7.39312 16.2909 7.3949C16.2842 7.39651 16.2773 7.39812 16.2705 7.39965L16.2502 7.40422C16.2434 7.40575 16.2366 7.40711 16.2298 7.40855L16.2094 7.41253C16.2027 7.4138 16.1958 7.41499 16.1891 7.41617L16.1688 7.41956L16.15 7.42253V7.44753L16.1688 7.44905L16.1891 7.45075L16.2094 7.4527L16.2298 7.4549L16.2502 7.45728L16.2705 7.4599L16.2909 7.4627C16.2976 7.46372 16.3044 7.46465 16.3112 7.46575L16.3315 7.46905C16.3384 7.47016 16.3452 7.47134 16.3519 7.47253L16.3723 7.47626L16.3926 7.48024C16.3994 7.4816 16.4062 7.48304 16.4129 7.48448C16.4197 7.48592 16.4266 7.48736 16.4333 7.48897C16.4401 7.4905 16.4469 7.49202 16.4536 7.49372C16.4605 7.49533 16.4672 7.49702 16.474 7.49872C16.4808 7.50041 16.4876 7.50219 16.4943 7.50397C16.5012 7.50575 16.5079 7.50761 16.5147 7.50948C16.5215 7.51134 16.5282 7.51329 16.535 7.51533L16.5554 7.52143C16.5622 7.52355 16.5691 7.52558 16.5757 7.52787C16.5825 7.53007 16.5893 7.53228 16.596 7.53456C16.6029 7.53685 16.6097 7.53922 16.6165 7.54151C16.6233 7.54397 16.6301 7.54643 16.6368 7.54889C16.6436 7.55143 16.6503 7.55389 16.6571 7.55651C16.6639 7.55914 16.6707 7.56185 16.6775 7.56448C16.6844 7.56728 16.6911 7.57007 16.6978 7.57295C16.7046 7.57583 16.7114 7.57872 16.7181 7.58168C16.725 7.58465 16.7318 7.5877 16.7386 7.59075C16.7454 7.59389 16.7521 7.59702 16.7589 7.60024C16.7657 7.60346 16.7724 7.60677 16.7792 7.61016C16.7861 7.61355 16.7929 7.61702 16.7996 7.6205C16.8064 7.62406 16.8132 7.6277 16.8199 7.63134C16.8267 7.63499 16.8335 7.63872 16.8403 7.64253C16.8471 7.64634 16.8539 7.65024 16.8607 7.65422C16.8674 7.65821 16.8743 7.66228 16.881 7.66643C16.8878 7.67066 16.8946 7.67499 16.9013 7.67922C16.9082 7.68363 16.915 7.68812 16.9217 7.69261C16.9285 7.69728 16.9353 7.70194 16.942 7.70668C16.9489 7.71151 16.9556 7.71634 16.9623 7.72134C16.9692 7.72634 16.976 7.73151 16.9827 7.73668C16.9896 7.74194 16.9964 7.74728 17.0031 7.75278C17.01 7.75821 17.0167 7.76389 17.0234 7.76965C17.0303 7.77541 17.037 7.78134 17.0438 7.78736C17.0506 7.79346 17.0574 7.79973 17.0641 7.806C17.071 7.81253 17.0778 7.81914 17.0845 7.82575C17.0913 7.83261 17.0981 7.83956 17.1048 7.8466C17.1117 7.85397 17.1185 7.86134 17.1252 7.8688C17.1322 7.8766 17.1389 7.88456 17.1456 7.89244C17.1524 7.90083 17.1592 7.90922 17.1658 7.91778C17.1728 7.92668 17.1797 7.93567 17.1862 7.94482C17.1932 7.95448 17.1999 7.96439 17.2066 7.97431C17.2135 7.98482 17.2204 7.9955 17.2269 8.00634C17.234 8.01804 17.2407 8.02982 17.2473 8.04185C17.2543 8.05482 17.2611 8.06804 17.2676 8.08151C17.2748 8.09634 17.2816 8.11151 17.2879 8.12685C17.2953 8.14456 17.302 8.16261 17.3083 8.18092C17.316 8.20329 17.3228 8.22609 17.3287 8.24931C17.3373 8.28338 17.3441 8.31838 17.349 8.35431C17.3549 8.39804 17.358 8.44304 17.358 8.48931C17.358 8.53694 17.3549 8.58321 17.349 8.62829C17.3441 8.66541 17.3373 8.70168 17.3287 8.73694C17.3228 8.76109 17.316 8.78482 17.3083 8.80812C17.3021 8.82702 17.2953 8.84558 17.2879 8.86389C17.2816 8.87982 17.2749 8.89558 17.2676 8.91109C17.2611 8.9249 17.2543 8.93855 17.2473 8.95202C17.2407 8.96448 17.234 8.97668 17.2269 8.9888C17.2204 8.99999 17.2135 9.01109 17.2066 9.02202C17.1999 9.03236 17.1932 9.04253 17.1862 9.05262C17.1797 9.06219 17.1728 9.07151 17.1658 9.08066C17.1592 9.08956 17.1524 9.09821 17.1456 9.10685C17.1389 9.11507 17.1322 9.12329 17.1252 9.13134C17.1185 9.13914 17.1117 9.14685 17.1048 9.15439C17.0981 9.16168 17.0913 9.16889 17.0845 9.176C17.0778 9.18295 17.0711 9.18973 17.0641 9.19651C17.0574 9.20304 17.0506 9.20956 17.0438 9.21583C17.037 9.22211 17.0303 9.22821 17.0234 9.23431C17.0167 9.24016 17.01 9.246 17.0031 9.25177C16.9964 9.25736 16.9896 9.26295 16.9827 9.26838C16.976 9.27372 16.9693 9.27905 16.9623 9.28422C16.9556 9.28931 16.9489 9.29439 16.942 9.29939C16.9353 9.30422 16.9285 9.30906 16.9217 9.31389C16.915 9.31855 16.9082 9.32321 16.9013 9.3277C16.8946 9.33219 16.8878 9.3366 16.881 9.34092C16.8743 9.34524 16.8674 9.34939 16.8607 9.35355C16.8539 9.35761 16.8471 9.36168 16.8403 9.36566C16.8335 9.36956 16.8267 9.37346 16.8199 9.37727C16.8132 9.381 16.8064 9.38473 16.7996 9.38838C16.7928 9.39194 16.7861 9.39558 16.7792 9.39905C16.7725 9.40253 16.7656 9.40583 16.7589 9.40922C16.7521 9.41253 16.7454 9.41567 16.7386 9.41897C16.7318 9.42211 16.725 9.42524 16.7181 9.42838C16.7114 9.43143 16.7046 9.43439 16.6978 9.43736C16.6911 9.44024 16.6843 9.44304 16.6775 9.44583C16.6707 9.44863 16.6639 9.45134 16.6571 9.45405C16.6503 9.45677 16.6436 9.45939 16.6368 9.46202C16.6301 9.46448 16.6233 9.46694 16.6165 9.46939C16.6097 9.47185 16.6029 9.47422 16.596 9.47651C16.5893 9.4788 16.5825 9.48117 16.5757 9.48338L16.5554 9.4899C16.5487 9.49202 16.5418 9.49405 16.535 9.49609C16.5282 9.49812 16.5215 9.50016 16.5147 9.50202C16.5079 9.50397 16.5012 9.50583 16.4943 9.5077C16.4876 9.50939 16.4808 9.51126 16.474 9.51295C16.4672 9.51465 16.4605 9.51643 16.4536 9.51804C16.4469 9.51965 16.4401 9.52126 16.4333 9.52278L16.4129 9.52728C16.4062 9.52872 16.3994 9.53024 16.3926 9.5316C16.3858 9.53295 16.379 9.53422 16.3723 9.53549L16.3519 9.53922L16.3315 9.54278C16.3248 9.54388 16.3179 9.54499 16.3112 9.546C16.3044 9.54702 16.2976 9.54812 16.2909 9.54905C16.2841 9.55007 16.2773 9.55092 16.2705 9.55185L16.2502 9.55431C16.2434 9.55516 16.2366 9.55592 16.2298 9.55668C16.2231 9.55736 16.2162 9.55812 16.2094 9.55872L16.1891 9.56066L16.1688 9.56228L16.1484 9.56372L16.128 9.56499L16.1077 9.56592C16.1009 9.56626 16.0942 9.56651 16.0873 9.56677C16.0806 9.56711 16.0738 9.56719 16.067 9.56728L16.0467 9.56778L16.0263 9.56795L16.0167 9.56804H16.0059H15.9856H15.9652H15.9449H15.9246H15.9042H15.8839H15.8635H15.8431H15.8228H15.8024H15.7821H15.7618H15.7413H15.7211H15.7007H15.6803H15.6601H15.6397H15.6193H15.599H15.5786H15.5582H15.538H15.5175H15.4972H15.4769H15.4565H15.4362H15.4158H15.3955H15.3751H15.3547H15.3344H15.3141H15.2937H15.2734H15.253H15.2326H15.2123H15.192H15.1716H15.1513H15.1309H15.1105H15.0903H15.0699H15.0495H15.0292H15.0088H14.9884H14.9681H14.9478H14.9274H14.907H14.8867H14.8664H14.846H14.8257H14.8054H14.785H14.7646H14.7443H14.7239H14.7036H14.6833H14.6629H14.6425H14.6222H14.6018H14.5815H14.5612H14.5408H14.5205H14.5001H14.4797H14.4594H14.4391H14.4186H14.3983H14.378H14.3576H14.3373H14.317H14.2966H14.2762H14.2559H14.2356H14.2152H14.1948H14.1746H14.1541H14.1337H14.1135H14.0931H14.0727H14.0525H14.032H14.0117H13.9914H13.971H13.9507H13.9303H13.9099H13.8896H13.8693H13.8489H13.8286H13.8082H13.7878H13.7675H13.7471H13.7268H13.7065H13.6861H13.6658H13.6454H13.625H13.6048H13.5844H13.564H13.5437H13.5233H13.5029H13.4827H13.4623H13.4419H13.4216H13.4012H13.3809H13.3606H13.3402H13.3199H13.2994H13.2791H13.2588H13.2384H13.2181H13.1978H13.1774H13.157H13.1367H13.1163H13.096H13.0757H13.0552H13.035H13.0146H12.9942H12.9739H12.9536H12.9331H12.9129H12.8925H12.8721H12.8518H12.8315H12.8111H12.7907H12.7468V13.9688H12.7907H12.8111H12.8315H12.8518H12.8721H12.8925H12.9129H12.9331H12.9536H12.9739H12.9942H13.0146H13.035H13.0552H13.0757H13.096H13.1163H13.1367H13.157H13.1774H13.1978H13.2181H13.2384H13.2588H13.2791H13.2994H13.3199H13.3402H13.3606H13.3809H13.4012H13.4216H13.4419H13.4623H13.4827H13.5029H13.5233H13.5437H13.564H13.5844H13.6048H13.625H13.6454H13.6658H13.6861H13.7065H13.7268H13.7471H13.7675H13.7878H13.8082H13.8286H13.8489H13.8693H13.8896H13.9099H13.9303H13.9507H13.971H13.9914H14.0117H14.032H14.0525H14.0727H14.0931H14.1135H14.1337H14.1541H14.1746H14.1948H14.2152H14.2356H14.2559H14.2762H14.2966H14.317H14.3373H14.3576H14.378H14.3983H14.4186H14.4391H14.4594H14.4797H14.5001H14.5205H14.5408H14.5612H14.5815H14.6018H14.6222H14.6425H14.6629H14.6833H14.7036H14.7239H14.7443H14.7646H14.785H14.8054H14.8257H14.846H14.8664H14.8867H14.907H14.9274H14.9478H14.9681H14.9884H15.0088H15.0292H15.0495H15.0699H15.0903H15.1105H15.1309H15.1513H15.1716H15.192H15.2123H15.2326H15.253H15.2734H15.2937H15.3141H15.3344H15.3547H15.3751H15.3955H15.4158H15.4362H15.4565H15.4769H15.4972H15.5175H15.538H15.5582H15.5786H15.599H15.6193H15.6397H15.6601H15.6803H15.7007H15.7211H15.7413H15.7618H15.7821H15.8024H15.8228H15.8389L15.8431 13.9687L15.8635 13.9685C15.8703 13.9684 15.8771 13.9683 15.8839 13.9682L15.9042 13.9676L15.9246 13.9669C15.9313 13.9666 15.9381 13.9664 15.9449 13.966C15.9517 13.9657 15.9584 13.9652 15.9652 13.9648L15.9856 13.9635C15.9924 13.963 15.9992 13.9626 16.0059 13.9621C16.0127 13.9614 16.0195 13.9607 16.0263 13.9602C16.0331 13.9596 16.0399 13.9591 16.0467 13.9583C16.0535 13.9576 16.0602 13.9569 16.067 13.9562C16.0738 13.9554 16.0805 13.9546 16.0873 13.9537C16.0941 13.953 16.101 13.9523 16.1077 13.9513C16.1146 13.9505 16.1213 13.9494 16.128 13.9485L16.1484 13.9456L16.1688 13.9424L16.1891 13.939C16.1958 13.9378 16.2026 13.9368 16.2094 13.9355C16.2163 13.9343 16.223 13.933 16.2298 13.9316L16.2502 13.9276L16.2705 13.9235C16.2773 13.922 16.2841 13.9204 16.2909 13.9189C16.2976 13.9174 16.3044 13.916 16.3112 13.9144L16.3315 13.9094L16.3519 13.9043L16.3723 13.8991C16.379 13.8973 16.3858 13.8953 16.3926 13.8935C16.3994 13.8916 16.4062 13.8897 16.4129 13.8878C16.4197 13.8858 16.4265 13.8837 16.4333 13.8817L16.4536 13.8755C16.4604 13.8734 16.4672 13.8713 16.474 13.8691L16.4943 13.8623C16.5012 13.8601 16.5079 13.8579 16.5147 13.8556C16.5215 13.8532 16.5282 13.8507 16.535 13.8483C16.5418 13.8458 16.5486 13.8434 16.5554 13.8408L16.5757 13.8332C16.5825 13.8307 16.5893 13.828 16.596 13.8253C16.6029 13.8226 16.6097 13.8201 16.6165 13.8173C16.6233 13.8145 16.6301 13.8116 16.6368 13.8087C16.6436 13.8059 16.6503 13.8032 16.6571 13.8002C16.6639 13.7973 16.6707 13.7942 16.6775 13.7912C16.6843 13.7881 16.6911 13.7852 16.6978 13.7821L16.7181 13.7727L16.7386 13.763C16.7454 13.7596 16.7521 13.7563 16.7589 13.753C16.7656 13.7496 16.7724 13.7462 16.7792 13.7426C16.786 13.7392 16.7929 13.7358 16.7996 13.7323C16.8064 13.7287 16.8131 13.7249 16.8199 13.7213C16.8267 13.7176 16.8335 13.7141 16.8403 13.7103C16.8471 13.7066 16.8539 13.7027 16.8607 13.6988C16.8674 13.6949 16.8742 13.6911 16.881 13.6871C16.8878 13.6831 16.8945 13.6791 16.9013 13.6751L16.9217 13.6628C16.9285 13.6585 16.9353 13.6544 16.942 13.6502C16.9489 13.6458 16.9556 13.6415 16.9623 13.6371C16.9692 13.6327 16.976 13.6283 16.9827 13.6239C16.9895 13.6193 16.9963 13.6147 17.0031 13.6102C17.0099 13.6055 17.0167 13.6009 17.0234 13.5962C17.0303 13.5914 17.037 13.5866 17.0438 13.5818C17.0505 13.5769 17.0574 13.5721 17.0641 13.5672C17.071 13.5622 17.0777 13.557 17.0845 13.5519C17.0913 13.5469 17.098 13.5419 17.1048 13.5366C17.1116 13.5313 17.1184 13.5259 17.1252 13.5206C17.132 13.5152 17.1389 13.5099 17.1456 13.5045C17.1523 13.499 17.1591 13.4933 17.1658 13.4877C17.1726 13.4821 17.1795 13.4764 17.1862 13.4707C17.1931 13.4648 17.1999 13.459 17.2066 13.4531C17.2133 13.4471 17.2201 13.4411 17.2269 13.4351C17.2337 13.429 17.2405 13.4228 17.2473 13.4167C17.2541 13.4103 17.2609 13.404 17.2676 13.3976C17.2744 13.3912 17.2812 13.3847 17.2879 13.3783C17.2948 13.3717 17.3015 13.3649 17.3083 13.3581C17.3151 13.3514 17.3219 13.3447 17.3287 13.3379C17.3355 13.3308 17.3422 13.3236 17.349 13.3166C17.3558 13.3094 17.3627 13.3023 17.3694 13.295C17.3762 13.2876 17.3829 13.2802 17.3897 13.2726C17.3966 13.265 17.4033 13.2574 17.4101 13.2496C17.4169 13.2419 17.4237 13.2341 17.4304 13.2262C17.4373 13.2181 17.444 13.21 17.4507 13.2017C17.4576 13.1935 17.4644 13.1852 17.4711 13.1768C17.478 13.1682 17.4847 13.1596 17.4915 13.1509C17.4983 13.1421 17.505 13.1331 17.5118 13.1241C17.5187 13.1151 17.5255 13.106 17.5322 13.0968C17.539 13.0873 17.5458 13.0778 17.5525 13.0681C17.5593 13.0584 17.5661 13.0485 17.5728 13.0385C17.5797 13.0285 17.5866 13.0183 17.5932 13.008C17.6 12.9975 17.6068 12.987 17.6136 12.9764C17.6204 12.9653 17.6272 12.9543 17.6339 12.9431C17.6408 12.9317 17.6476 12.9202 17.6543 12.9087C17.6611 12.8968 17.6679 12.8848 17.6746 12.8728C17.6815 12.8603 17.6883 12.8479 17.695 12.8353C17.7019 12.8223 17.7087 12.8091 17.7154 12.7958C17.7222 12.782 17.7289 12.768 17.7356 12.7541C17.7426 12.7395 17.7494 12.7248 17.756 12.71C17.763 12.6944 17.7697 12.6788 17.7764 12.6631C17.7833 12.6465 17.7901 12.6298 17.7966 12.613C17.8037 12.5952 17.8105 12.5771 17.8171 12.5591C17.8241 12.5396 17.8309 12.52 17.8374 12.5003C17.8446 12.4785 17.8513 12.4566 17.8578 12.4346C17.8649 12.4102 17.8718 12.3857 17.8781 12.361C17.8855 12.3323 17.8922 12.3034 17.8985 12.2743C17.9061 12.2385 17.9129 12.2024 17.9188 12.166C17.9276 12.1118 17.9345 12.0569 17.9391 12.0014C17.9446 11.9385 17.9475 11.8746 17.9475 11.8102L17.9475 1.01702H17.9391ZM14.8869 6.06219H14.8666H14.8462H14.8259H14.8055H14.7852H14.7648H14.7445H14.7242H14.7038H14.6835H14.6632H14.6427H14.6224H14.6021H14.5817H14.5613H14.5411H14.5207H14.5003H14.4801H14.4597H14.4393H14.419H14.3986H14.3783H14.358H14.3376H14.3173H14.2969H14.2765H14.2562H14.2359H14.2155H14.1952H14.1748H14.1545H14.1342H14.1138H14.0934H14.0731H14.0527H14.0324H14.0121H13.9917H13.9714H13.9511H13.9307H13.9103H13.89H13.8696H13.8493H13.829H13.8086H13.7883H13.7777V7.11312H13.7883H13.8086H13.829H13.8493H13.8696H13.89H13.9103H13.9307H13.9511H13.9714H13.9917H14.0121H14.0324H14.0527H14.0731H14.0934H14.1138H14.1342H14.1545H14.1748H14.1952H14.2155H14.2359H14.2562H14.2765H14.2969H14.3173H14.3376H14.358H14.3783H14.3986H14.419H14.4393H14.4597H14.4801H14.5003H14.5207H14.5411H14.5613H14.5817H14.6021H14.6224H14.6427H14.6632H14.6835H14.7038H14.7242H14.7445H14.7648H14.7852H14.8055H14.8259H14.8462H14.8666H14.8837H14.8869C14.8933 7.11304 14.9002 7.11287 14.9072 7.11261C14.9139 7.11228 14.9207 7.11194 14.9276 7.11151C14.9345 7.11109 14.9413 7.11058 14.948 7.10999C14.955 7.10939 14.9619 7.10872 14.9683 7.10804C14.9757 7.10728 14.9827 7.10651 14.9886 7.10567C14.9948 7.1049 15.0001 7.10414 15.004 7.10338L15.0091 7.10244C15.0158 7.10126 15.0225 7.0999 15.0293 7.09838C15.0361 7.09685 15.0429 7.09524 15.0497 7.09338C15.0565 7.09151 15.0633 7.08965 15.0701 7.08753C15.0768 7.0855 15.0836 7.08312 15.0903 7.08083C15.0972 7.07838 15.104 7.07575 15.1107 7.07304C15.1176 7.07024 15.1244 7.06736 15.1311 7.06431C15.1379 7.06117 15.1446 7.05795 15.1513 7.05448C15.1583 7.05109 15.1651 7.04736 15.1717 7.04355C15.1787 7.03965 15.1854 7.03567 15.1921 7.03134C15.199 7.02711 15.2057 7.02261 15.2124 7.01795C15.2193 7.01304 15.2261 7.00812 15.2328 7.00295C15.2397 6.99753 15.2465 6.99202 15.2532 6.98634C15.2601 6.98024 15.2669 6.97406 15.2735 6.9677C15.2805 6.961 15.2873 6.95406 15.2938 6.94685C15.3008 6.93931 15.3076 6.93143 15.3142 6.92338C15.3212 6.91465 15.328 6.90575 15.3345 6.89651C15.3416 6.88643 15.3484 6.87592 15.3548 6.86516C15.3622 6.85304 15.3689 6.84058 15.3752 6.82761C15.3827 6.81219 15.3896 6.79626 15.3956 6.77965C15.4039 6.75702 15.4107 6.73346 15.4159 6.70889C15.4241 6.67075 15.4285 6.63024 15.4285 6.5877C15.4285 6.54507 15.4241 6.50456 15.4159 6.46634C15.4107 6.44177 15.4039 6.41812 15.3956 6.39558C15.3896 6.37906 15.3827 6.36304 15.3752 6.34761C15.3689 6.33473 15.3622 6.32211 15.3548 6.30999C15.3484 6.29922 15.3416 6.2888 15.3345 6.27872C15.328 6.26948 15.3212 6.2605 15.3142 6.25177C15.3076 6.24372 15.3008 6.23583 15.2938 6.22829C15.2873 6.22117 15.2805 6.21422 15.2735 6.20753C15.2669 6.20109 15.2601 6.1949 15.2532 6.18889C15.2465 6.18312 15.2397 6.17761 15.2328 6.17228C15.2261 6.16711 15.2193 6.16202 15.2124 6.15719C15.2057 6.15261 15.199 6.14804 15.1921 6.14372C15.1854 6.13956 15.1787 6.13541 15.1717 6.13151C15.1651 6.1277 15.1583 6.12405 15.1513 6.12058C15.1446 6.11719 15.1379 6.11389 15.1311 6.11075C15.1244 6.1077 15.1176 6.10473 15.1107 6.10202C15.104 6.09923 15.0972 6.09668 15.0903 6.09422C15.0836 6.09177 15.0768 6.08948 15.0701 6.08736C15.0633 6.08533 15.0565 6.08329 15.0497 6.08151C15.0429 6.07965 15.0361 6.07795 15.0293 6.07643C15.0225 6.0749 15.0158 6.07346 15.0091 6.07228L15.004 6.07134C15.0001 6.07075 14.9948 6.07007 14.9886 6.06939C14.9827 6.06872 14.9757 6.06795 14.9683 6.06719C14.9619 6.06651 14.955 6.06583 14.948 6.06524C14.9413 6.06473 14.9345 6.06414 14.9276 6.0638C14.9207 6.06338 14.9139 6.06287 14.9072 6.0627L14.8955 6.06219H14.8869ZM14.9885 7.75524H14.9682H14.9479H14.9274H14.9071H14.8868H14.8664H14.8461H14.8258H14.8054H14.7851H14.7647H14.7444H14.724H14.7036H14.6834H14.663H14.6426H14.6223H14.602H14.5815H14.5613H14.5409H14.5205H14.5003H14.4799H14.4595H14.4392H14.4188H14.3985H14.3782H14.3578H14.3374H14.3171H14.2968H14.2764H14.256H14.2357H14.2154H14.195H14.1747H14.1544H14.134H14.1136H14.0933H14.0729H14.0525H14.0323H14.0119H13.9915H13.9713H13.9509H13.9305H13.9102H13.8898H13.8695H13.8492H13.8288H13.8085H13.7881H13.7776V8.89405H13.7881H13.8085H13.8288H13.8492H13.8695H13.8898H13.9102H13.9305H13.9509H13.9713H13.9915H14.0119H14.0323H14.0525H14.0729H14.0933H14.1136H14.134H14.1544H14.1747H14.195H14.2154H14.2357H14.256H14.2764H14.2968H14.3171H14.3374H14.3578H14.3782H14.3985H14.4188H14.4392H14.4595H14.4799H14.5003H14.5205H14.5409H14.5613H14.5815H14.602H14.6223H14.6426H14.663H14.6834H14.7036H14.724H14.7444H14.7647H14.7851H14.8054H14.8258H14.8461H14.8664H14.8868H14.9071H14.9274H14.9479H14.9682H14.9885H14.998L15.0089 8.89397C15.0151 8.8938 15.022 8.89355 15.0292 8.89312C15.0358 8.89278 15.0426 8.89236 15.0495 8.89185C15.0562 8.89134 15.0631 8.89075 15.0699 8.89016C15.0768 8.88948 15.0836 8.8888 15.0903 8.88804C15.0972 8.88728 15.1041 8.88643 15.1106 8.8855C15.1178 8.88456 15.1247 8.88346 15.131 8.88236C15.1355 8.88151 15.1395 8.88066 15.1432 8.87982L15.1513 8.87795C15.158 8.87626 15.1648 8.87465 15.1716 8.8727C15.1785 8.87083 15.1853 8.8688 15.192 8.8666C15.1989 8.86439 15.2056 8.86211 15.2123 8.85965C15.2191 8.85719 15.2259 8.85448 15.2326 8.85168C15.2395 8.84889 15.2463 8.84583 15.253 8.8427C15.2599 8.83956 15.2666 8.83617 15.2734 8.83278C15.2802 8.82914 15.287 8.8255 15.2937 8.8216C15.3006 8.8177 15.3074 8.81363 15.3141 8.80931C15.3209 8.80499 15.3277 8.8005 15.3344 8.79584C15.3413 8.791 15.3481 8.78609 15.3547 8.78092C15.3617 8.77567 15.3685 8.77007 15.3751 8.76439C15.382 8.75855 15.3888 8.75253 15.3954 8.74626C15.4024 8.73973 15.4092 8.73304 15.4158 8.72609C15.4228 8.71889 15.4295 8.71143 15.4362 8.70372C15.4432 8.6955 15.45 8.68711 15.4565 8.67855C15.4635 8.66922 15.4703 8.65965 15.4769 8.6499C15.484 8.63923 15.4908 8.62829 15.4972 8.61694C15.5044 8.60422 15.5112 8.59109 15.5175 8.5777C15.525 8.56168 15.5318 8.54533 15.5379 8.52838C15.5461 8.50567 15.5529 8.48202 15.5582 8.4577C15.5675 8.41558 15.5726 8.37109 15.5726 8.32465C15.5726 8.27838 15.5675 8.23414 15.5582 8.19202C15.5529 8.1677 15.5461 8.14422 15.5379 8.1216C15.5318 8.10473 15.5251 8.08838 15.5175 8.07236C15.5112 8.05897 15.5044 8.04583 15.4972 8.03321C15.4908 8.02194 15.4839 8.01092 15.4769 8.00016C15.4703 7.99041 15.4635 7.98083 15.4565 7.97168C15.45 7.96304 15.4432 7.95465 15.4362 7.94651C15.4295 7.9388 15.4228 7.93126 15.4158 7.92397C15.4092 7.91711 15.4025 7.91041 15.3954 7.90389C15.3888 7.89761 15.382 7.89151 15.3751 7.88558C15.3685 7.8799 15.3617 7.87439 15.3547 7.86905C15.3481 7.86397 15.3413 7.85889 15.3344 7.85414C15.3277 7.84939 15.3209 7.8449 15.3141 7.8405C15.3074 7.83626 15.3006 7.83211 15.2937 7.82821C15.2869 7.82431 15.2802 7.82058 15.2734 7.81702C15.2666 7.81355 15.2599 7.81016 15.253 7.80694C15.2463 7.80389 15.2395 7.80083 15.2326 7.79787C15.2259 7.79507 15.2191 7.79244 15.2123 7.7899C15.2056 7.78736 15.1989 7.78499 15.192 7.78278C15.1853 7.78058 15.1785 7.77855 15.1716 7.7766C15.1648 7.77473 15.158 7.77295 15.1513 7.77126L15.1432 7.76948C15.1395 7.76863 15.1355 7.76787 15.131 7.76711C15.1247 7.76592 15.1178 7.76499 15.1106 7.76397C15.1041 7.76304 15.0972 7.76219 15.0903 7.76134C15.0836 7.76066 15.0768 7.7599 15.0699 7.75931C15.0631 7.75863 15.0562 7.75812 15.0495 7.75753C15.0426 7.75702 15.0358 7.7566 15.0292 7.75617C15.022 7.75583 15.0151 7.7555 15.0089 7.75533L15.0054 7.75524H14.9885Z" fill="#4DAB3C"/>
<path fill-rule="evenodd" clip-rule="evenodd" d="M6.25905 1.01694H6.23877H6.21841H6.19805H6.17785H6.15749H6.13713H6.11685H6.09657H6.07621H6.05593H6.03557H6.01529H5.99501H5.97465H5.95437H5.93401H5.91373H5.89336H5.87309H5.85281H5.83244H5.81208H5.79189H5.77152H5.75116H5.73097H5.7106H5.69024H5.66996H5.64968H5.62932H5.60904H5.58868H5.5684H5.54812H5.52776H5.5074H5.4872H5.46684H5.44648H5.42628H5.40592H5.38556H5.36528H5.345H5.32464H5.30428H5.284H5.26372H5.24336H5.22308H5.20272H5.18244H5.16216H5.1418H5.12152H5.10116H5.08088H5.06052H5.04024H5.01996H4.9996H4.97923H4.95904H4.93868H4.91831H4.89803H4.87776H4.85739H4.83711H4.81684H4.79647H4.77619H4.75583H4.73555H4.71519H4.69491H4.67455H4.65427H4.63399H4.61363H4.59335H4.57307H4.55271H4.53235H4.51215H4.49179H4.47143H4.45115H4.43087H4.41051H4.39015H4.36987H4.34959H4.32923H4.30895H4.28867H4.26831H4.24803H4.22767H4.20739H4.18711H4.16675H4.14647H4.12611H4.10583H4.08546H4.06519H4.04491H4.02454H4.00418H3.98399H3.96362H3.94326H3.92298H3.9027H3.88234H3.86206H3.84178H3.82142H3.80114H3.78078H3.7605H3.74022H3.71986H3.6995H3.67922H3.65894H3.63858H3.61822H3.59802H3.57766H3.5573H3.5371H3.51674H3.49638H3.4761H3.45582H3.43546H3.41518H3.39482H3.37454H3.35418H3.3339H3.31354H3.29326H3.27298H3.25262H3.23234H3.21206H3.1917H3.18036L3.17133 1.01702C3.16463 1.01711 3.15784 1.01719 3.15105 1.01728C3.14435 1.01736 3.13748 1.01736 3.13078 1.01753C3.12399 1.0177 3.1172 1.01804 3.11041 1.01829L3.09005 1.01914C3.08335 1.01948 3.07656 1.01965 3.06986 1.02007C3.06307 1.02041 3.05628 1.02101 3.04949 1.02134C3.04271 1.02177 3.03592 1.02219 3.02913 1.0227C3.02234 1.02321 3.01564 1.0238 3.00885 1.02431L2.98857 1.02617C2.98179 1.02685 2.975 1.02736 2.96821 1.02804C2.96142 1.02872 2.95472 1.02965 2.94793 1.03041L2.92765 1.03278L2.90729 1.03541C2.9005 1.03634 2.89372 1.03736 2.88701 1.03838C2.88023 1.03931 2.87344 1.04016 2.86665 1.04126C2.85995 1.04236 2.85316 1.04346 2.84637 1.04465L2.82609 1.04804C2.81931 1.04931 2.81252 1.05041 2.80573 1.0516C2.79894 1.05295 2.79216 1.05431 2.78537 1.05558C2.77866 1.05694 2.77188 1.05821 2.76517 1.05956C2.7583 1.06101 2.7516 1.06253 2.74481 1.06397L2.72445 1.06846C2.71766 1.06999 2.71087 1.07151 2.70417 1.07312C2.69738 1.07473 2.6906 1.0766 2.68389 1.07829C2.6771 1.0799 2.67032 1.08151 2.66353 1.08329C2.65674 1.08507 2.64995 1.08694 2.64325 1.0888L2.62297 1.09439C2.61618 1.09634 2.6094 1.09812 2.60261 1.10016C2.59582 1.10211 2.58903 1.10423 2.58225 1.10634C2.57546 1.10838 2.56867 1.11041 2.56197 1.11253C2.55518 1.11473 2.54848 1.11694 2.54169 1.11914L2.52133 1.12592L2.50105 1.13287C2.49418 1.13524 2.48747 1.1377 2.48069 1.14016C2.47398 1.14262 2.46719 1.14499 2.46041 1.14753C2.45362 1.14999 2.44692 1.15278 2.44013 1.15533L2.41977 1.16329L2.39949 1.17151L2.37921 1.18007C2.37242 1.18287 2.36555 1.18575 2.35885 1.18872C2.35206 1.19168 2.34527 1.19473 2.33848 1.19778C2.3317 1.20084 2.32499 1.2038 2.3182 1.20694C2.31142 1.21007 2.30471 1.21329 2.29793 1.21651C2.29114 1.21982 2.28435 1.22304 2.27756 1.22626C2.27078 1.22956 2.26399 1.23304 2.25729 1.23634L2.23701 1.24677C2.23014 1.25024 2.22335 1.25372 2.21664 1.25736C2.20986 1.26092 2.20307 1.26456 2.19628 1.26829C2.18949 1.27202 2.18279 1.27558 2.176 1.27939C2.16922 1.28321 2.16251 1.28711 2.15572 1.291C2.14894 1.2949 2.14207 1.29863 2.13536 1.30262C2.12857 1.30668 2.12179 1.31084 2.115 1.3149C2.10821 1.31897 2.10151 1.32304 2.0948 1.32719C2.08793 1.33143 2.08123 1.33575 2.07444 1.34007C2.06766 1.34439 2.06087 1.34863 2.05408 1.35304C2.04729 1.35745 2.04051 1.36202 2.0338 1.3666C2.02701 1.37109 2.02031 1.37567 2.01352 1.38024C2.00674 1.38482 1.99995 1.38956 1.99316 1.39431C1.98637 1.39914 1.97959 1.40397 1.97288 1.40872C1.96601 1.41372 1.95931 1.41863 1.9526 1.42363L1.93224 1.4388C1.92545 1.44389 1.91867 1.44914 1.91196 1.45431C1.90517 1.45965 1.8983 1.46499 1.8916 1.47033C1.88481 1.47575 1.87811 1.48117 1.87132 1.48677C1.86453 1.49228 1.85775 1.49787 1.85104 1.50346C1.84417 1.50923 1.83738 1.51499 1.83068 1.52075C1.82389 1.5266 1.81711 1.53245 1.81032 1.53829C1.80353 1.54431 1.79683 1.55041 1.79012 1.55651C1.78333 1.56262 1.77646 1.56872 1.76976 1.57499C1.76289 1.58134 1.75619 1.58778 1.7494 1.59423C1.74261 1.60075 1.73574 1.60711 1.72912 1.61363C1.72233 1.62033 1.71563 1.62719 1.70884 1.63397C1.70205 1.64075 1.69518 1.64762 1.68848 1.65448C1.68161 1.6616 1.6749 1.66863 1.6682 1.67584C1.66133 1.68312 1.65454 1.69033 1.64792 1.69762C1.64105 1.70507 1.63426 1.71245 1.62756 1.71999C1.62069 1.72762 1.61398 1.73541 1.6072 1.74321C1.60041 1.751 1.59362 1.75889 1.58692 1.76685C1.58013 1.77499 1.57334 1.78321 1.56664 1.79143C1.55977 1.79982 1.55298 1.80821 1.54628 1.81668C1.53949 1.82533 1.53262 1.83389 1.526 1.84253C1.51904 1.85151 1.51234 1.86067 1.50564 1.86965C1.49885 1.87889 1.49206 1.88812 1.48536 1.89745C1.47857 1.90694 1.4717 1.91643 1.46508 1.926C1.45812 1.93592 1.45142 1.94592 1.44472 1.956C1.43785 1.96617 1.43106 1.9766 1.42435 1.98694C1.41765 1.99745 1.41078 2.00812 1.40416 2.0188C1.3972 2.0299 1.39042 2.04101 1.3838 2.05219C1.37684 2.06372 1.37014 2.07541 1.36343 2.08719C1.35656 2.09923 1.34986 2.11134 1.34315 2.12355C1.33628 2.13617 1.3295 2.14889 1.32288 2.1616C1.31592 2.17482 1.30914 2.18812 1.30251 2.20151C1.29564 2.2155 1.28877 2.22948 1.28215 2.24363C1.27536 2.25838 1.26849 2.27329 1.26196 2.28821C1.25492 2.30397 1.24822 2.31982 1.24159 2.33584C1.23456 2.35278 1.22777 2.36973 1.22123 2.38694C1.21428 2.40524 1.20757 2.42372 1.20095 2.44228C1.19392 2.46236 1.18713 2.48253 1.18067 2.50295C1.17355 2.52507 1.16677 2.54745 1.16031 2.56999C1.15319 2.59524 1.14632 2.62067 1.14003 2.64634C1.13267 2.67626 1.1258 2.70643 1.11967 2.73685C1.09111 2.87855 1.07605 3.02533 1.07605 3.17575V8.50685C1.09062 8.51397 1.1051 8.52117 1.11967 8.52829V8.52821V8.52829L1.14003 8.53812L1.16031 8.54778L1.18067 8.55745L1.20095 8.56702L1.22123 8.57651L1.24159 8.58592L1.26196 8.59516L1.28215 8.60439L1.30251 8.61346L1.32288 8.62245L1.34315 8.63134L1.36343 8.64024L1.3838 8.64897L1.40416 8.65753L1.42435 8.66609L1.44472 8.67456L1.46508 8.68287L1.48536 8.69109L1.50564 8.69922L1.526 8.70728L1.54628 8.71524L1.56664 8.72304L1.58692 8.73075L1.6072 8.73846L1.62756 8.74592L1.64792 8.75346L1.6682 8.76075L1.68848 8.76787L1.70884 8.77507L1.72912 8.78211L1.7494 8.78906L1.76976 8.79584L1.79012 8.80245L1.81032 8.80906L1.83068 8.81558L1.85104 8.82194L1.87132 8.82821L1.8916 8.83431L1.91196 8.84041L1.93224 8.84634L1.9526 8.85219L1.97288 8.85795L1.99316 8.86346L2.01352 8.86897L2.0338 8.87439L2.05408 8.87956L2.07444 8.88473L2.0948 8.88982L2.115 8.89473L2.13536 8.89948L2.15572 8.90423L2.176 8.9088L2.19628 8.91321L2.21664 8.91753L2.23701 8.92177L2.25729 8.92583L2.27756 8.92982L2.29793 8.93372L2.3182 8.93745L2.33848 8.941L2.35885 8.94456L2.37921 8.94787L2.39949 8.95117L2.41977 8.95431L2.44013 8.95728L2.46041 8.96016L2.48069 8.96295L2.50105 8.96558L2.52133 8.96812L2.54169 8.9705L2.56197 8.9727L2.58225 8.97482L2.60261 8.97685L2.62297 8.97872L2.64325 8.9805L2.66353 8.98211L2.68389 8.98355L2.70417 8.9849L2.72445 8.98609L2.74481 8.98719L2.76517 8.98821L2.78537 8.98906L2.80573 8.98973L2.82609 8.99024L2.84637 8.99058L2.86665 8.99092L2.88701 8.99109L2.89968 8.99117L2.90729 8.99109C2.91416 8.991 2.92095 8.991 2.92765 8.99084L2.94793 8.99041C2.95472 8.99016 2.96151 8.98999 2.96821 8.98973C2.97508 8.98948 2.98179 8.98906 2.98857 8.98872C2.99536 8.98838 3.00215 8.98804 3.00885 8.98761C3.01564 8.98711 3.02243 8.98668 3.02913 8.98609C3.036 8.98558 3.04271 8.9849 3.04949 8.98431C3.05636 8.98372 3.06315 8.98304 3.06986 8.98228L3.09005 8.97999C3.09692 8.97922 3.10371 8.97838 3.11041 8.97745C3.11728 8.97651 3.12407 8.97558 3.13078 8.97456L3.15105 8.97143C3.15784 8.97024 3.16463 8.96906 3.17133 8.96778C3.1782 8.9666 3.18499 8.96541 3.1917 8.96406C3.19857 8.96278 3.20527 8.96134 3.21206 8.9599C3.21884 8.95846 3.22563 8.95702 3.23234 8.95541C3.23912 8.95389 3.24591 8.95228 3.25262 8.95058C3.2594 8.94889 3.26619 8.94719 3.27298 8.9455C3.27976 8.94363 3.28655 8.94177 3.29326 8.93982C3.30013 8.93795 3.30691 8.93592 3.31354 8.93389C3.32032 8.93185 3.32719 8.92973 3.3339 8.92762C3.34068 8.92541 3.34747 8.92312 3.35418 8.92084C3.36105 8.91855 3.36783 8.91609 3.37454 8.91363C3.38133 8.91117 3.38803 8.90863 3.39482 8.906C3.4016 8.90338 3.40839 8.90067 3.41518 8.89795C3.42197 8.89524 3.42875 8.89236 3.43546 8.88948C3.44233 8.88651 3.44903 8.88355 3.45582 8.88041C3.46261 8.87728 3.46931 8.87406 3.4761 8.87084C3.48289 8.86753 3.48967 8.86414 3.49638 8.86075C3.50325 8.85719 3.51004 8.85372 3.51674 8.85007C3.52361 8.84643 3.53031 8.84262 3.5371 8.8388C3.54381 8.83499 3.55059 8.831 3.5573 8.82702C3.56417 8.82287 3.57096 8.81872 3.57766 8.81448C3.58453 8.81007 3.59132 8.80567 3.59802 8.80117C3.60489 8.7966 3.6116 8.79194 3.61822 8.78711C3.62509 8.78236 3.63188 8.77736 3.63858 8.77236C3.64545 8.76719 3.65224 8.76202 3.65894 8.75668C3.66581 8.75126 3.6726 8.74584 3.6793 8.74016C3.68609 8.73439 3.69288 8.72855 3.6995 8.7227C3.70637 8.71651 3.71316 8.71041 3.71986 8.70406C3.72673 8.69762 3.73352 8.69092 3.74022 8.68431C3.74709 8.67736 3.7538 8.67024 3.7605 8.66321C3.76737 8.65575 3.77416 8.64829 3.78078 8.64067C3.78773 8.63287 3.79452 8.62482 3.80114 8.61677C3.80801 8.60829 3.81488 8.59973 3.82142 8.591C3.82838 8.58185 3.83508 8.57253 3.84178 8.56312C3.84865 8.55329 3.85544 8.54321 3.86206 8.53304C3.8691 8.52228 3.8758 8.51126 3.88234 8.50016C3.88938 8.48829 3.89617 8.47634 3.9027 8.46414C3.90974 8.45083 3.91644 8.43745 3.92298 8.4238C3.9301 8.40872 3.93689 8.39355 3.94326 8.37812C3.95055 8.36084 3.95725 8.34329 3.96362 8.3255C3.97099 8.30448 3.97778 8.28321 3.98399 8.26151C3.99168 8.23431 3.99847 8.2066 4.00418 8.17838C4.01362 8.1327 4.02041 8.08575 4.02454 8.03753C4.02786 7.99973 4.02951 7.96109 4.02951 7.92194V5.41736H4.04491H4.06519H4.08546H4.10583H4.12611H4.14647H4.16675H4.18711H4.20739H4.22767H4.24803H4.26831H4.28867H4.30895H4.32923H4.34959H4.36987H4.39015H4.41051H4.43087H4.45115H4.47143H4.49179H4.51215H4.53235H4.55271H4.57307H4.59335H4.61363H4.63399H4.65427H4.67455H4.69491H4.71519H4.73555H4.75583H4.77619H4.79647H4.81684H4.83711H4.85739H4.87776H4.89803H4.91831H4.93868H4.95904H4.97923H4.9996H5.01996H5.04024H5.06052H5.08088H5.10116H5.12152H5.1418H5.16216H5.18244H5.20272H5.22308H5.24336H5.26372H5.284H5.30428H5.32464H5.345H5.36528H5.38556H5.40592H5.42628H5.44648H5.46684H5.4872H5.5074H5.52776H5.54812H5.5684H5.58868H5.60904H5.62932H5.64968H5.66996H5.69024H5.7106H5.73097H5.75116H5.77152H5.79189H5.81208H5.83244H5.84263V7.92194C5.84263 7.99465 5.83931 8.06626 5.83244 8.13668C5.82756 8.18719 5.82086 8.23702 5.81208 8.28592C5.80629 8.31889 5.7995 8.35151 5.79189 8.38363C5.78568 8.40965 5.77889 8.43533 5.77152 8.46084C5.76515 8.48261 5.75845 8.50414 5.75116 8.52558C5.74487 8.54439 5.738 8.56312 5.73097 8.58168C5.72443 8.59846 5.71764 8.61507 5.7106 8.6316C5.70415 8.64677 5.69736 8.66194 5.69024 8.67694C5.68379 8.69084 5.677 8.70465 5.66996 8.71846C5.66342 8.73126 5.65664 8.74406 5.64968 8.75668C5.64306 8.76863 5.63628 8.7805 5.62932 8.79228C5.62278 8.80346 5.616 8.81448 5.60904 8.8255C5.60242 8.83592 5.59563 8.84643 5.58868 8.85668C5.58206 8.8666 5.57527 8.87643 5.5684 8.88617C5.56178 8.89558 5.55508 8.90499 5.54812 8.91431C5.5415 8.92312 5.53463 8.93194 5.52776 8.94058C5.52114 8.94906 5.51427 8.95736 5.5074 8.96567C5.50078 8.9738 5.49407 8.98177 5.4872 8.98973C5.48042 8.99745 5.47379 9.00516 5.46684 9.01287C5.46022 9.02016 5.45335 9.02736 5.44648 9.03456C5.43986 9.04168 5.43307 9.04863 5.42628 9.05567C5.4195 9.06245 5.41279 9.06923 5.40592 9.076C5.3993 9.08245 5.39243 9.08889 5.38556 9.09516C5.37886 9.10151 5.37215 9.10787 5.36528 9.11414C5.35858 9.12007 5.35171 9.126 5.345 9.13194C5.3383 9.13778 5.33151 9.14363 5.32464 9.14931C5.31794 9.15499 5.31115 9.16058 5.30428 9.16609C5.29766 9.17151 5.29079 9.17685 5.284 9.18219C5.27721 9.18745 5.27051 9.1927 5.26372 9.19804C5.25702 9.20304 5.25023 9.20795 5.24336 9.21295C5.23665 9.21795 5.22995 9.22287 5.22308 9.22778C5.21637 9.23245 5.2095 9.23711 5.20272 9.24177C5.19601 9.24643 5.18931 9.25109 5.18244 9.25567C5.17582 9.26007 5.16895 9.26448 5.16216 9.26889C5.15537 9.27321 5.14867 9.27753 5.1418 9.28185C5.13509 9.28601 5.1283 9.29016 5.12152 9.29422C5.11481 9.29838 5.10803 9.30245 5.10116 9.30643C5.09445 9.31041 5.08775 9.31439 5.08088 9.31829C5.07417 9.32211 5.06739 9.32592 5.06052 9.32965C5.05381 9.33346 5.04711 9.33719 5.04024 9.34092C5.03361 9.34448 5.02674 9.34804 5.01996 9.3516C5.01317 9.35516 5.00647 9.3588 4.9996 9.36228C4.99297 9.36575 4.98602 9.36897 4.97923 9.37236C4.97253 9.37575 4.96582 9.37906 4.95904 9.38245L4.93868 9.39202L4.91831 9.40143C4.91153 9.40456 4.9049 9.40778 4.89803 9.41083C4.89141 9.4138 4.88454 9.4166 4.87776 9.41948L4.85739 9.42821L4.83711 9.43668C4.83041 9.43939 4.82362 9.44219 4.81684 9.44482C4.81005 9.44753 4.80334 9.45033 4.79647 9.45295C4.78977 9.45558 4.7829 9.45812 4.77619 9.46067L4.75583 9.46821C4.74905 9.47075 4.74234 9.47338 4.73555 9.47575C4.72893 9.47821 4.72198 9.4805 4.71519 9.48287L4.69491 9.4899L4.67455 9.49685C4.66785 9.49906 4.66106 9.50117 4.65427 9.50329L4.63399 9.5099L4.61363 9.51617C4.60693 9.51829 4.60006 9.52024 4.59335 9.52227L4.57307 9.52829C4.56629 9.53033 4.55958 9.53228 4.55271 9.53422C4.54601 9.53609 4.53914 9.53795 4.53235 9.53973L4.51215 9.54533C4.50537 9.54719 4.49866 9.54897 4.49179 9.55083C4.48509 9.55253 4.47822 9.55422 4.47143 9.55592L4.45115 9.56109C4.44436 9.5627 4.43766 9.56448 4.43087 9.56609C4.42417 9.5677 4.4173 9.56922 4.41051 9.57083L4.39015 9.5755C4.38336 9.57711 4.37674 9.57863 4.36987 9.58016L4.34959 9.58456L4.32923 9.5888C4.32244 9.59016 4.31574 9.59168 4.30895 9.59312L4.28867 9.59711L4.26831 9.601L4.24803 9.6049C4.24116 9.60617 4.23454 9.60761 4.22767 9.6088C4.22096 9.60999 4.21417 9.61109 4.20739 9.61228L4.18711 9.61583C4.18024 9.61694 4.17362 9.61821 4.16675 9.61922L4.14647 9.62261L4.12611 9.62575L4.10583 9.62889C4.09904 9.62982 4.09233 9.63101 4.08546 9.63202L4.06519 9.63482L4.04491 9.63753L4.02454 9.64041L4.00418 9.64304L3.98399 9.6455L3.96362 9.64804L3.94326 9.65041L3.92298 9.6527L3.9027 9.6549L3.88234 9.65694L3.86206 9.65905L3.84178 9.661L3.82142 9.66278L3.80114 9.66465L3.78078 9.66643L3.7605 9.66804L3.74022 9.66956L3.71986 9.671L3.6995 9.67253L3.67922 9.67397L3.65894 9.67516L3.63858 9.67634L3.61822 9.67762L3.59802 9.67872L3.57766 9.67965L3.5573 9.68058L3.5371 9.68151L3.51674 9.68236L3.49638 9.68312L3.4761 9.68372L3.45582 9.68439L3.43546 9.68499L3.41518 9.6855L3.39482 9.68592L3.37454 9.68626L3.35418 9.68668L3.3339 9.68702L3.31354 9.68719L3.29326 9.68728L3.27298 9.68745L3.25262 9.68761L3.2402 9.6877L3.23234 9.68761L3.21206 9.68753H3.1917L3.17133 9.68736L3.15105 9.68711L3.13078 9.68694L3.11041 9.6866L3.09005 9.68626L3.06986 9.68592L3.04949 9.68541L3.02913 9.6849L3.00885 9.68448L2.98857 9.6838L2.96821 9.68312L2.94793 9.68244L2.92765 9.68177L2.90729 9.681L2.88701 9.68016L2.86665 9.67931L2.84637 9.67846L2.82609 9.67745L2.80573 9.67643L2.78537 9.67541L2.76517 9.67422L2.74481 9.67321L2.72445 9.67194L2.70417 9.67075L2.68389 9.66939L2.66353 9.66804L2.64325 9.66668L2.62297 9.66524L2.60261 9.6638L2.58225 9.66227L2.56197 9.66066L2.54169 9.65914L2.52133 9.65744L2.50105 9.65575L2.48069 9.65406L2.46041 9.65219L2.44013 9.65041L2.41977 9.64855L2.39949 9.6466L2.37921 9.64465L2.35885 9.64261L2.33848 9.6405L2.3182 9.63846L2.29793 9.63634L2.27756 9.63414L2.25729 9.63194L2.23701 9.62965L2.21664 9.62727L2.19628 9.6249L2.176 9.62245L2.15572 9.61999L2.13536 9.61753L2.115 9.61499L2.0948 9.61236L2.07444 9.60973L2.05408 9.60702L2.0338 9.60431L2.01352 9.60151L1.99316 9.59872L1.97288 9.59583L1.9526 9.59295L1.93224 9.59007L1.91196 9.58702L1.8916 9.58397L1.87132 9.58092L1.85104 9.57778L1.83068 9.57456L1.81032 9.57134L1.79012 9.56804L1.76976 9.56473L1.7494 9.56134L1.72912 9.55795L1.70884 9.55448L1.68848 9.551L1.6682 9.54744L1.64792 9.5438L1.62756 9.54016L1.6072 9.53651L1.58692 9.5327L1.56664 9.52897L1.54628 9.52507L1.526 9.52117L1.50564 9.51719L1.48536 9.51321L1.46508 9.50922L1.44472 9.50507L1.42435 9.50083L1.40416 9.49668L1.3838 9.49244L1.36343 9.48804L1.34315 9.48372L1.32288 9.47931L1.30251 9.47482L1.28215 9.47024L1.26196 9.46558L1.24159 9.46092L1.22123 9.45609L1.20095 9.45134L1.18067 9.44634L1.16031 9.44134L1.14003 9.43626L1.11967 9.43109C1.09111 9.42372 1.07605 9.41948 1.07605 9.41948V13.9687H1.11967H1.14003H1.16031H1.18067H1.20095H1.22123H1.24159H1.26196H1.28215H1.30251H1.32288H1.34315H1.36343H1.3838H1.40416H1.42435H1.44472H1.46508H1.48536H1.50564H1.526H1.54628H1.56664H1.58692H1.6072H1.62756H1.64792H1.6682H1.68848H1.70884H1.72912H1.7494H1.76976H1.79012H1.81032H1.83068H1.85104H1.87132H1.8916H1.91196H1.93224H1.9526H1.97288H1.99316H2.01352H2.0338H2.05408H2.07444H2.0948H2.115H2.13536H2.15572H2.176H2.19628H2.21664H2.23701H2.25729H2.27756H2.29793H2.3182H2.33848H2.35885H2.37921H2.39949H2.41977H2.44013H2.46041H2.48069H2.50105H2.52133H2.54169H2.56197H2.58225H2.60261H2.62297H2.64325H2.66353H2.68389H2.70417H2.72445H2.74481H2.76517H2.78537H2.80573H2.82609H2.84637H2.86665H2.88701H2.90729H2.92765H2.94793H2.96821H2.98857H3.00885H3.02913H3.04949H3.06986H3.09005H3.11041H3.13078H3.15105H3.17133H3.1917H3.21206H3.23234H3.25262H3.27298H3.29326H3.31354H3.3339H3.35418H3.37454H3.39482H3.41518H3.43546H3.45582H3.4761H3.49638H3.51674H3.5371H3.5573H3.57766H3.59802H3.61822H3.63858H3.65894H3.67922H3.6995H3.71986H3.74022H3.7605H3.78078H3.80114H3.82142H3.84178H3.86206H3.88234H3.9027H3.92298H3.94326H3.96362H3.98399H4.00418H4.02454H4.04491H4.06519H4.08546H4.10583H4.12611H4.14647H4.16675H4.16824C4.17453 13.9687 4.18073 13.9685 4.18711 13.9685L4.20739 13.9681C4.21417 13.9681 4.22096 13.968 4.22767 13.9678C4.23445 13.9675 4.24124 13.9673 4.24803 13.967C4.25482 13.9667 4.2616 13.9666 4.26831 13.9662L4.28867 13.9651L4.30895 13.9638C4.31574 13.9634 4.32252 13.963 4.32923 13.9624C4.3361 13.962 4.3428 13.9612 4.34959 13.9606L4.36987 13.9588C4.37666 13.9582 4.38344 13.9574 4.39015 13.9568C4.39702 13.956 4.40372 13.9552 4.41051 13.9544C4.4173 13.9536 4.42408 13.9529 4.43087 13.952C4.43766 13.9512 4.44436 13.9502 4.45115 13.9492L4.47143 13.9463C4.47822 13.9453 4.485 13.9444 4.49179 13.9434C4.49858 13.9423 4.50537 13.9411 4.51215 13.9399C4.51894 13.9388 4.52564 13.9377 4.53235 13.9365L4.55271 13.9328C4.5595 13.9314 4.56629 13.9301 4.57307 13.9287C4.57978 13.9274 4.58665 13.9262 4.59335 13.9247C4.60014 13.9234 4.60684 13.9218 4.61363 13.9202L4.63399 13.9157L4.65427 13.9109C4.66106 13.9093 4.66785 13.9075 4.67455 13.9058C4.68134 13.9041 4.68813 13.9025 4.69491 13.9008C4.7017 13.899 4.7084 13.897 4.71519 13.8952C4.72206 13.8933 4.72885 13.8914 4.73555 13.8896L4.75583 13.8835L4.77619 13.8774C4.7829 13.8753 4.78977 13.8734 4.79647 13.8713C4.80334 13.869 4.81005 13.8667 4.81684 13.8644C4.82362 13.8622 4.83033 13.86 4.83711 13.8577L4.85739 13.8506L4.87776 13.8432C4.88454 13.8407 4.89133 13.8384 4.89803 13.8357C4.90482 13.8331 4.91153 13.8305 4.91831 13.8278C4.9251 13.8252 4.93197 13.8226 4.93868 13.82C4.94546 13.8172 4.95225 13.8143 4.95904 13.8115C4.96582 13.8086 4.97253 13.8059 4.97923 13.803L4.9996 13.7942L5.01996 13.7851C5.02674 13.782 5.03353 13.779 5.04024 13.7759C5.04702 13.7727 5.05381 13.7694 5.06052 13.7662C5.0673 13.763 5.07409 13.7598 5.08088 13.7564C5.08766 13.753 5.09445 13.7496 5.10116 13.7462C5.10803 13.7427 5.11481 13.7393 5.12152 13.7358C5.1283 13.7323 5.13501 13.7286 5.1418 13.7251L5.16216 13.7141C5.16895 13.7103 5.17573 13.7066 5.18244 13.7028C5.18931 13.699 5.19601 13.6951 5.20272 13.6912C5.2095 13.6873 5.21629 13.6834 5.22308 13.6793C5.22987 13.6752 5.23657 13.6712 5.24336 13.667C5.25015 13.663 5.25702 13.6589 5.26372 13.6546C5.27051 13.6504 5.27721 13.6461 5.284 13.6417C5.2907 13.6374 5.29757 13.6331 5.30428 13.6287C5.31115 13.6242 5.31785 13.6196 5.32464 13.615C5.33143 13.6104 5.3383 13.6059 5.345 13.6013C5.35171 13.5966 5.35849 13.5918 5.36528 13.5869C5.37207 13.5822 5.37886 13.5774 5.38556 13.5725C5.39243 13.5676 5.39913 13.5625 5.40592 13.5575C5.41271 13.5524 5.4195 13.5474 5.42628 13.5424C5.43299 13.5371 5.43969 13.5318 5.44648 13.5265C5.45327 13.5212 5.46014 13.5159 5.46684 13.5106C5.47363 13.5051 5.48042 13.4995 5.4872 13.4939C5.49399 13.4883 5.50078 13.4829 5.5074 13.4771C5.51427 13.4714 5.52097 13.4655 5.52776 13.4596C5.53455 13.4538 5.54142 13.448 5.54812 13.442C5.55499 13.4359 5.56162 13.4297 5.5684 13.4235C5.57519 13.4174 5.58198 13.4113 5.58868 13.405C5.59555 13.3986 5.60226 13.3921 5.60904 13.3856C5.61583 13.3791 5.62262 13.3725 5.62932 13.366C5.63619 13.3592 5.64298 13.3525 5.64968 13.3457C5.65647 13.3388 5.66318 13.3319 5.66996 13.3248C5.67675 13.3177 5.68354 13.3106 5.69024 13.3035C5.69711 13.2962 5.70382 13.2887 5.7106 13.2813C5.71739 13.2739 5.72418 13.2664 5.73097 13.2589C5.73775 13.2511 5.74446 13.2433 5.75116 13.2354C5.75803 13.2274 5.76482 13.2195 5.77152 13.2114C5.7784 13.2033 5.78518 13.1952 5.79189 13.1869C5.79867 13.1784 5.80538 13.1698 5.81208 13.1612C5.81895 13.1525 5.82574 13.1438 5.83244 13.1351C5.83931 13.1261 5.8461 13.1169 5.85281 13.1079C5.85968 13.0985 5.86638 13.0891 5.87309 13.0796C5.87987 13.0701 5.88674 13.0604 5.89336 13.0507C5.90023 13.0408 5.90702 13.0307 5.91373 13.0207C5.9206 13.0103 5.9273 12.9998 5.93401 12.9893C5.94096 12.9785 5.94766 12.9677 5.95437 12.9569C5.96115 12.9457 5.96802 12.9346 5.97465 12.9232C5.98152 12.9116 5.9883 12.8998 5.99501 12.888C6.00196 12.8757 6.00867 12.8634 6.01529 12.851C6.02216 12.8382 6.02894 12.8253 6.03557 12.8124C6.04252 12.7988 6.04931 12.7852 6.05593 12.7716C6.06288 12.7574 6.06967 12.7431 6.07621 12.7287C6.08316 12.7136 6.08995 12.6985 6.09657 12.6832C6.10344 12.6672 6.11023 12.6509 6.11685 12.6347C6.1238 12.6174 6.13059 12.6 6.13713 12.5824C6.14425 12.5637 6.15103 12.5448 6.15749 12.5258C6.16453 12.5052 6.17131 12.4846 6.17785 12.4637C6.18489 12.4408 6.19176 12.4175 6.19805 12.3942C6.20541 12.3676 6.21212 12.3408 6.21841 12.3138C6.22594 12.2818 6.23265 12.2495 6.23877 12.2169C6.24672 12.1741 6.25359 12.1308 6.25905 12.0872C6.27039 11.9964 6.27627 11.904 6.27627 11.8101V1.01694H6.25905Z" fill="#0E6EB6"/>
<path fill-rule="evenodd" clip-rule="evenodd" d="M12.0532 1.01694H12.0329H12.0127H11.9923H11.9719H11.9517H11.9314H11.911H11.8907H11.8705H11.8501H11.8297H11.8095H11.7892H11.7688H11.7485H11.7283H11.7079H11.6876H11.6673H11.647H11.6267H11.6063H11.586H11.5657H11.5454H11.5251H11.5048H11.4845H11.4641H11.4438H11.4236H11.4032H11.3829H11.3626H11.3423H11.3219H11.3016H11.2813H11.261H11.2407H11.2203H11.2001H11.1797H11.1594H11.1391H11.1188H11.0984H11.0782H11.0578H11.0375H11.0172H10.9969H10.9766H10.9562H10.936H10.9156H10.8953H10.875H10.8547H10.8343H10.814H10.7938H10.7734H10.7531H10.7328H10.7125H10.6921H10.6719H10.6516H10.6312H10.6109H10.5906H10.5703H10.5499H10.5296H10.5094H10.489H10.4687H10.4484H10.4281H10.4078H10.3874H10.3672H10.3469H10.3265H10.3062H10.2859H10.2656H10.2452H10.225H10.2047H10.1843H10.164H10.1437H10.1234H10.103H10.0827H10.0625H10.0421H10.0218H10.0015H9.9812H9.96083H9.94047H9.92028H9.89991H9.87955H9.85927H9.83899H9.81863H9.79835H9.77807H9.75771H9.73735H9.71707H9.69679H9.67643H9.65615H9.63579H9.61551H9.59523H9.57487H9.55451H9.53431H9.51395H9.49359H9.47331H9.45303H9.43267H9.41231H9.39211H9.37175H9.35139H9.33111H9.31083H9.29047H9.2701H9.24983H9.22955H9.20918H9.18891H9.16863H9.14826H9.1279H9.10762H9.08734H9.06698H9.0467H9.02642H9.00606H8.98578H8.97436L8.96542 1.01702C8.95863 1.01711 8.95185 1.01719 8.94514 1.01728C8.93836 1.01736 8.93157 1.01736 8.92486 1.01753C8.91799 1.0177 8.91129 1.01804 8.9045 1.01829L8.88414 1.01914C8.87735 1.01948 8.87065 1.01965 8.86386 1.02007C8.85707 1.02041 8.85037 1.02101 8.84358 1.02134C8.83679 1.02177 8.83001 1.02219 8.82322 1.0227C8.81643 1.02321 8.80965 1.0238 8.80286 1.02439L8.78266 1.02626C8.77587 1.02685 8.769 1.02736 8.7623 1.02804C8.75551 1.02872 8.74873 1.02965 8.74194 1.03041L8.72166 1.03287L8.70138 1.0355C8.69459 1.03634 8.68781 1.03736 8.68102 1.03838C8.67423 1.03939 8.66744 1.04016 8.66074 1.04126C8.65395 1.04236 8.64716 1.04346 8.64046 1.04465L8.6201 1.04804L8.59974 1.0516C8.59295 1.05295 8.58616 1.05431 8.57946 1.05567C8.57267 1.05694 8.56588 1.05829 8.55918 1.05965C8.55239 1.06101 8.5456 1.06253 8.53882 1.06397L8.51845 1.06855C8.51175 1.07007 8.50488 1.0716 8.49818 1.07321C8.49147 1.07482 8.48468 1.0766 8.4779 1.07829C8.47111 1.0799 8.46432 1.0816 8.45753 1.08338C8.45075 1.08516 8.44404 1.08694 8.43726 1.0888L8.41698 1.09439C8.41019 1.09643 8.4034 1.09821 8.39661 1.10024C8.38983 1.10219 8.38304 1.10431 8.37634 1.10643C8.36955 1.10846 8.36268 1.11041 8.35597 1.11253C8.34919 1.11473 8.34248 1.11702 8.33569 1.11923L8.31542 1.12601C8.30863 1.12829 8.30176 1.13058 8.29505 1.13295C8.28827 1.13533 8.28148 1.13778 8.27469 1.14024C8.26799 1.1427 8.2612 1.14507 8.25441 1.14762C8.24763 1.15007 8.24092 1.15287 8.23413 1.15541C8.22735 1.15812 8.22048 1.16067 8.21377 1.16338C8.20698 1.16609 8.2002 1.16889 8.19349 1.1716L8.17313 1.18016C8.16634 1.18295 8.15956 1.18584 8.15285 1.1888C8.14606 1.19177 8.13928 1.1949 8.13249 1.19795C8.1257 1.20092 8.119 1.20389 8.11221 1.20702C8.10542 1.21016 8.09872 1.21346 8.09193 1.21668C8.08514 1.2199 8.07836 1.22312 8.07157 1.22634C8.06478 1.22973 8.058 1.23304 8.05129 1.23651L8.03101 1.24677L8.01065 1.25745C8.00386 1.26109 7.99708 1.26473 7.99029 1.26838C7.9835 1.27211 7.97671 1.27575 7.97001 1.27956C7.96322 1.28329 7.95652 1.28728 7.94973 1.29109C7.94294 1.29499 7.93607 1.29872 7.92937 1.3027C7.92258 1.30677 7.91588 1.31092 7.90909 1.31499C7.9023 1.31914 7.89551 1.32312 7.88881 1.32736C7.88194 1.33151 7.87524 1.33592 7.86845 1.34016C7.86166 1.34448 7.85487 1.3488 7.84809 1.35321C7.8413 1.35762 7.83451 1.36211 7.82781 1.36668C7.82102 1.37117 7.81423 1.37575 7.80753 1.38033C7.80074 1.38499 7.79395 1.38973 7.78717 1.39448C7.78038 1.39931 7.77359 1.40406 7.76689 1.40897C7.76002 1.41389 7.75331 1.4188 7.74653 1.4238C7.73982 1.4288 7.73295 1.4338 7.72625 1.43897C7.71946 1.44414 7.71267 1.44931 7.70597 1.45456C7.6991 1.45982 7.69231 1.46507 7.68561 1.4705C7.67882 1.47592 7.67211 1.48143 7.66533 1.48694C7.65854 1.49245 7.65175 1.49804 7.64505 1.50363C7.63818 1.50931 7.63139 1.51516 7.62469 1.52092C7.61782 1.52677 7.61103 1.53262 7.60432 1.53855C7.59754 1.54448 7.59083 1.55058 7.58404 1.55668C7.57726 1.56287 7.57047 1.56897 7.56377 1.57516C7.5569 1.58151 7.55011 1.58795 7.5434 1.59448C7.53662 1.60084 7.52975 1.60728 7.52304 1.6138C7.51625 1.62058 7.50955 1.62736 7.50276 1.63414C7.49598 1.641 7.48919 1.64778 7.48248 1.65473C7.47561 1.66177 7.46891 1.66889 7.46212 1.676C7.45533 1.68321 7.44855 1.6905 7.44184 1.69778C7.43506 1.70524 7.42827 1.7127 7.42156 1.72016C7.41469 1.72787 7.40799 1.73567 7.4012 1.74338C7.39441 1.75126 7.38763 1.75914 7.38092 1.76702C7.37405 1.77524 7.36735 1.78338 7.36064 1.79168C7.35377 1.79999 7.34699 1.80846 7.34028 1.81694C7.3335 1.82558 7.32662 1.83414 7.31992 1.84278C7.31305 1.85168 7.30635 1.86084 7.29964 1.8699C7.29285 1.87906 7.28607 1.88829 7.27936 1.8977C7.27257 1.90719 7.2657 1.9166 7.259 1.92617C7.25213 1.93609 7.24543 1.94617 7.23872 1.95617C7.23177 1.96643 7.22506 1.97677 7.21836 1.98711C7.21157 1.9977 7.20478 2.00838 7.19808 2.01914C7.19121 2.03016 7.18442 2.04126 7.1778 2.05236C7.17085 2.06397 7.16414 2.07567 7.15744 2.08728C7.15057 2.09939 7.14386 2.1116 7.13716 2.1238C7.13029 2.13634 7.1235 2.14906 7.11688 2.16185C7.10993 2.17507 7.10314 2.18838 7.09652 2.20177C7.08957 2.21567 7.08278 2.22973 7.07616 2.2438C7.06929 2.25863 7.0625 2.27346 7.05588 2.28846C7.04893 2.30423 7.04214 2.31999 7.0356 2.336C7.02856 2.35287 7.02178 2.36999 7.01524 2.38711C7.00828 2.40541 7.0015 2.42389 6.99488 2.44245C6.98784 2.46253 6.98114 2.4827 6.97468 2.50295C6.96748 2.52524 6.96069 2.54762 6.95432 2.57016C6.94712 2.59541 6.94033 2.62092 6.93396 2.6466C6.92659 2.67651 6.9198 2.7066 6.91368 2.73711C6.88512 2.87872 6.87006 3.0255 6.87006 3.17575V6.00177C6.88429 5.98931 6.89886 5.97694 6.91368 5.96465C6.92038 5.95906 6.92717 5.95355 6.93396 5.94812C6.94066 5.9427 6.94745 5.93728 6.95432 5.93194C6.96102 5.9266 6.96781 5.92134 6.97468 5.91609C6.98138 5.91092 6.98817 5.90584 6.99488 5.90084C7.00158 5.89575 7.00845 5.89075 7.01524 5.88575C7.02194 5.88092 7.02873 5.876 7.0356 5.87117L7.05588 5.85694C7.06258 5.85228 7.06945 5.8477 7.07616 5.84304L7.09652 5.82948C7.10322 5.82507 7.11001 5.82058 7.11688 5.81617C7.1235 5.81185 7.13037 5.80761 7.13716 5.80329C7.14386 5.79906 7.15057 5.79482 7.15744 5.79058C7.16423 5.78643 7.17093 5.78236 7.1778 5.77821C7.18451 5.77422 7.19129 5.77024 7.19808 5.76626C7.20487 5.76228 7.21157 5.75829 7.21836 5.75439L7.23872 5.74287L7.259 5.7316C7.26579 5.72787 7.27249 5.72414 7.27936 5.7205C7.28607 5.71694 7.29285 5.71338 7.29964 5.70982L7.31992 5.69922L7.34028 5.6888L7.36064 5.6788C7.36735 5.6755 7.37405 5.67211 7.38092 5.66889L7.4012 5.65922L7.42156 5.64973L7.44184 5.64058L7.46212 5.63143L7.48248 5.62253L7.50276 5.61389L7.52304 5.60533L7.5434 5.59711L7.56377 5.58889C7.57047 5.58617 7.57726 5.58355 7.58404 5.58092L7.60432 5.57304C7.61103 5.5705 7.6179 5.56795 7.62469 5.56541C7.63139 5.56295 7.63818 5.56041 7.64505 5.55787L7.66533 5.55067L7.68561 5.54338C7.69231 5.541 7.69918 5.53872 7.70597 5.53643L7.72625 5.52948C7.73295 5.52719 7.73982 5.52499 7.74653 5.52278L7.76689 5.51609L7.78717 5.50965L7.80753 5.50338L7.82781 5.49728L7.84809 5.49117L7.86845 5.48516L7.88881 5.47939L7.90909 5.4738L7.92937 5.46821L7.94973 5.4627L7.97001 5.45745L7.99029 5.45219L8.01065 5.44711L8.03101 5.44211L8.05129 5.43728L8.07157 5.43253L8.09193 5.42795L8.11221 5.42338L8.13249 5.41889L8.15285 5.41456L8.17313 5.41033L8.19349 5.40617L8.21377 5.40211L8.23413 5.39821L8.25441 5.39439L8.27469 5.39058L8.29505 5.38694L8.31542 5.38338L8.33569 5.3799L8.35597 5.37651L8.37634 5.37312L8.39661 5.36999L8.41698 5.36685L8.43726 5.3638L8.45753 5.36084L8.4779 5.35787L8.49818 5.35516L8.51845 5.35245L8.53882 5.34973L8.55918 5.34719L8.57946 5.34465L8.59974 5.34228L8.6201 5.3399L8.64046 5.33753L8.66074 5.33541L8.68102 5.33329L8.70138 5.33117L8.72166 5.32923L8.74194 5.32728L8.7623 5.32541L8.78266 5.32372L8.80286 5.32202L8.82322 5.32033L8.84358 5.3188L8.86386 5.31719L8.88414 5.31575L8.9045 5.31431L8.92486 5.31295L8.94514 5.31177L8.96542 5.3105L8.98578 5.30939L9.00606 5.30829L9.02642 5.30736L9.0467 5.30626L9.06698 5.30541L9.08734 5.30456L9.10762 5.30372L9.1279 5.30304L9.14826 5.30236L9.16863 5.30168L9.18891 5.30117L9.20918 5.30058L9.22955 5.30016L9.24983 5.29982L9.2701 5.29939L9.29047 5.29906L9.31083 5.29889L9.33111 5.29863L9.35139 5.29846L9.37175 5.29838L9.39211 5.29829H9.41231H9.43267L9.45303 5.29846L9.47331 5.29855L9.49359 5.2988L9.51395 5.29906L9.53431 5.29931L9.55451 5.29965L9.57487 5.29999L9.59523 5.3005L9.61551 5.30084L9.63579 5.30134L9.65615 5.30202L9.67643 5.30253L9.69679 5.30321L9.71707 5.30389L9.73735 5.30456L9.75771 5.30533L9.77807 5.30617L9.79835 5.30711L9.81863 5.30795L9.82857 5.30838L9.83899 5.30889L9.85927 5.30982L9.87955 5.311L9.89991 5.31202L9.92028 5.31338L9.94047 5.31456L9.96083 5.316L9.9812 5.31745L10.0015 5.31889L10.0218 5.32041L10.0421 5.32211L10.0625 5.3238L10.0827 5.32558L10.103 5.32736L10.1234 5.32931L10.1437 5.33117L10.164 5.33321L10.1843 5.33533L10.2047 5.33736L10.225 5.33956L10.2452 5.34177L10.2656 5.34406L10.2859 5.34634L10.3062 5.3488L10.3265 5.35126L10.3469 5.35372L10.3672 5.35634L10.3874 5.35889L10.4078 5.3616L10.4281 5.36422L10.4484 5.36694L10.4687 5.36982L10.489 5.37261L10.5094 5.3755L10.5296 5.37846L10.5499 5.38151L10.5703 5.38448L10.5906 5.38753L10.6109 5.39067L10.6312 5.3938L10.6516 5.39711L10.6719 5.40033L10.6921 5.40363L10.7125 5.40694L10.7328 5.41041L10.7531 5.4138L10.7734 5.41728L10.7938 5.42075L10.814 5.42431L10.8343 5.42795L10.8547 5.4316L10.875 5.43524L10.8953 5.43897L10.9156 5.4427L10.936 5.44651L10.9562 5.45041L10.9766 5.45431L10.9969 5.45821L11.0172 5.46219L11.0375 5.46617L11.0578 5.47024L11.0782 5.47439L11.0984 5.47846L11.1188 5.48261L11.1391 5.48685L11.1594 5.49117L11.1797 5.49541L11.2001 5.49973L11.2203 5.50414L11.2407 5.50863L11.261 5.51304L11.2813 5.51753L11.3016 5.52211L11.3219 5.52668L11.3423 5.53134L11.3626 5.53609L11.3829 5.54083L11.4032 5.54567L11.4236 5.55058L11.4438 5.55541L11.4641 5.5605L11.4843 5.56558V6.47939L11.4641 6.46906L11.4438 6.45855L11.4236 6.44838L11.4032 6.43812L11.3829 6.42804L11.3626 6.41804L11.3423 6.40821L11.3219 6.39838L11.3016 6.38872L11.2813 6.37914L11.261 6.36973L11.2407 6.36033L11.2203 6.35109L11.2001 6.34202L11.1797 6.33295L11.1594 6.32414L11.1391 6.31524L11.1188 6.3066L11.0984 6.29804L11.0782 6.28956L11.0578 6.28126L11.0375 6.27304L11.0172 6.26499L10.9969 6.25702L10.9766 6.24914L10.9562 6.24143L10.936 6.2338L10.9156 6.22634L10.8953 6.21897L10.875 6.21168L10.8547 6.20456L10.8343 6.19761L10.814 6.19067L10.7938 6.18389L10.7734 6.17728L10.7531 6.17075L10.7328 6.16431L10.7125 6.15804L10.6921 6.15185L10.6719 6.14583L10.6516 6.13999L10.6312 6.13414L10.6109 6.12846L10.5906 6.12287L10.5703 6.11745L10.5499 6.11211L10.5296 6.10694L10.5094 6.10194L10.489 6.09694L10.4687 6.09211L10.4484 6.08745L10.4281 6.08278L10.4078 6.07829L10.3874 6.07397L10.3672 6.06965L10.3469 6.06558L10.3265 6.06151L10.3062 6.05761L10.2859 6.05389L10.2656 6.05024L10.2452 6.0466L10.225 6.04321L10.2047 6.03982L10.1843 6.03668L10.164 6.03355L10.1437 6.0305L10.1234 6.02761L10.103 6.0249L10.0827 6.02228L10.0625 6.01973L10.0421 6.01728L10.0218 6.01499L10.0015 6.01278L9.9812 6.01067L9.96083 6.00863L9.94047 6.00677L9.92028 6.0049L9.89991 6.00329L9.88758 6.00228L9.87955 6.00168L9.85927 6.00033L9.83899 5.99897L9.81863 5.99778L9.79835 5.99677L9.77807 5.99575L9.75771 5.99516L9.73735 5.99448L9.71707 5.99397L9.69679 5.99372L9.67643 5.99338C9.66964 5.99338 9.66294 5.99346 9.65615 5.99346L9.63579 5.99355L9.61551 5.99389L9.59523 5.99431L9.57487 5.99482C9.568 5.99507 9.5613 5.99541 9.55451 5.99567C9.5478 5.996 9.54102 5.99617 9.53431 5.99651L9.51395 5.99778L9.49359 5.99897L9.47331 6.00041L9.45303 6.00202C9.44624 6.00261 9.43937 6.00304 9.43267 6.0038C9.42588 6.0044 9.41909 6.00516 9.41231 6.00584L9.39211 6.00787L9.37175 6.01033L9.35139 6.01287L9.33111 6.01558L9.31083 6.01855L9.29047 6.02168C9.28368 6.02278 9.27689 6.02397 9.2701 6.02516C9.2634 6.02626 9.25653 6.02736 9.24983 6.02855C9.24304 6.02973 9.23633 6.03117 9.22955 6.03245C9.22276 6.03372 9.21589 6.03499 9.20918 6.03634C9.2024 6.0377 9.19569 6.03923 9.18891 6.04067C9.18212 6.04211 9.17533 6.04355 9.16863 6.04507C9.16176 6.0466 9.15505 6.04821 9.14826 6.04982L9.1279 6.05473C9.12112 6.05643 9.11433 6.05821 9.10762 6.05999C9.10084 6.06177 9.09405 6.06355 9.08734 6.06541C9.08056 6.06719 9.07377 6.06923 9.06698 6.07117L9.0467 6.07702C9.03983 6.07914 9.03313 6.08126 9.02642 6.08338C9.01964 6.0855 9.01285 6.0877 9.00606 6.0899C8.99927 6.09211 8.99249 6.09448 8.98578 6.09677C8.979 6.09914 8.97213 6.10143 8.96542 6.1038C8.95855 6.10626 8.95185 6.1088 8.94514 6.11134C8.93836 6.1138 8.93157 6.11634 8.92486 6.11897C8.91799 6.1216 8.91129 6.12439 8.9045 6.12719C8.89771 6.1299 8.89084 6.13261 8.88414 6.13541C8.87735 6.13829 8.87065 6.14126 8.86386 6.14431C8.85707 6.14728 8.85029 6.15024 8.84358 6.15338C8.83671 6.15643 8.83001 6.15965 8.82322 6.16287C8.81643 6.16617 8.80956 6.16939 8.80286 6.1727C8.79615 6.17617 8.78937 6.17956 8.78266 6.18304C8.77579 6.18651 8.769 6.19007 8.7623 6.19372C8.75551 6.19736 8.74864 6.201 8.74194 6.20473C8.73507 6.20855 8.72836 6.21253 8.72166 6.21643C8.71487 6.22041 8.70808 6.22431 8.70138 6.22838C8.69451 6.23253 8.68772 6.23668 8.68102 6.24092C8.67415 6.24524 8.66744 6.24956 8.66066 6.25397C8.65395 6.25846 8.64708 6.26287 8.64046 6.26736C8.63359 6.27211 8.62689 6.27685 8.6201 6.2816C8.61323 6.28651 8.60644 6.29134 8.59974 6.29634C8.59295 6.30134 8.58608 6.30643 8.57946 6.31151C8.57267 6.31685 8.56588 6.32228 8.55918 6.3277C8.55231 6.33321 8.54552 6.33863 8.53882 6.34431C8.53203 6.35007 8.52516 6.35575 8.51845 6.3616C8.51158 6.36761 8.50488 6.37372 8.49818 6.37982C8.49139 6.38609 8.4846 6.39253 8.4779 6.39889C8.47103 6.4055 8.46424 6.41202 8.45753 6.41872C8.45075 6.42558 8.44388 6.43245 8.43726 6.43939C8.43039 6.44668 8.42368 6.45406 8.41698 6.46143C8.41011 6.46906 8.40332 6.47668 8.39661 6.48439C8.38974 6.49245 8.38296 6.5005 8.37634 6.50872C8.36938 6.51711 8.3626 6.52558 8.35597 6.53414C8.34919 6.54304 8.34232 6.55202 8.33569 6.56109C8.32882 6.5705 8.32204 6.5799 8.31542 6.58956C8.30846 6.59956 8.30168 6.60965 8.29505 6.61999C8.28818 6.63067 8.2814 6.64143 8.27469 6.65236C8.26782 6.6638 8.26103 6.6755 8.25441 6.68728C8.24746 6.69956 8.24067 6.71211 8.23413 6.72473C8.2271 6.73821 8.22031 6.75185 8.21377 6.76558C8.20682 6.78024 8.20003 6.79507 8.19349 6.81007C8.18646 6.82626 8.17959 6.84253 8.17313 6.85914C8.16593 6.87745 8.15931 6.89617 8.15285 6.91507C8.14573 6.93592 8.13886 6.95719 8.13249 6.97872C8.12521 7.00372 8.11842 7.02906 8.11221 7.0549C8.10451 7.08711 8.09781 7.11999 8.09193 7.15338C8.08316 7.20295 8.07637 7.25397 8.07157 7.30634C8.06611 7.36685 8.06329 7.42906 8.06329 7.49321C8.06329 7.55719 8.06611 7.61939 8.07157 7.6799C8.07637 7.73219 8.08316 7.78321 8.09193 7.8327C8.09781 7.86617 8.10451 7.89897 8.11221 7.93109C8.11842 7.95694 8.12521 7.98236 8.13249 8.00736C8.13886 8.0288 8.14573 8.05007 8.15285 8.07092C8.15931 8.08982 8.16593 8.10846 8.17313 8.12685C8.17959 8.14338 8.18646 8.15973 8.19349 8.17583C8.20003 8.19083 8.20682 8.20575 8.21377 8.22033C8.22031 8.23406 8.2271 8.2477 8.23413 8.26109C8.24067 8.27372 8.24746 8.28634 8.25441 8.29872C8.26103 8.31033 8.26782 8.32202 8.27469 8.33346C8.2814 8.34439 8.28818 8.35524 8.29505 8.36592C8.30168 8.37617 8.30846 8.38626 8.31542 8.39626C8.32204 8.40583 8.32882 8.41533 8.33569 8.42473C8.34232 8.43389 8.34919 8.44278 8.35597 8.45168C8.3626 8.46024 8.36938 8.4688 8.37634 8.47719C8.38296 8.48524 8.38974 8.49338 8.39661 8.50134C8.40332 8.50906 8.41011 8.51677 8.41698 8.52439C8.42368 8.53168 8.43039 8.53906 8.43726 8.54634C8.44388 8.55338 8.45075 8.56016 8.45753 8.56702C8.46424 8.57363 8.47103 8.58033 8.4779 8.58685C8.4846 8.59329 8.49139 8.59956 8.49818 8.60583C8.50488 8.61202 8.51158 8.61812 8.51845 8.62414C8.52516 8.62999 8.53203 8.63566 8.53882 8.64134C8.54552 8.64702 8.55231 8.65253 8.55918 8.65804C8.56588 8.66346 8.57267 8.6688 8.57946 8.67406C8.58608 8.67931 8.59295 8.68431 8.59974 8.68939C8.60644 8.69431 8.61323 8.69922 8.6201 8.70397C8.62689 8.7088 8.63359 8.71363 8.64046 8.71829C8.64708 8.72287 8.65395 8.72728 8.66066 8.73168C8.66744 8.73609 8.67415 8.7405 8.68102 8.74473C8.68772 8.74889 8.69451 8.75321 8.70138 8.75728C8.70808 8.76134 8.71487 8.76533 8.72166 8.76931C8.72836 8.77321 8.73507 8.77711 8.74194 8.78092C8.74864 8.78473 8.75551 8.78829 8.7623 8.79194C8.769 8.7955 8.77579 8.79914 8.78266 8.80262C8.78937 8.80609 8.79615 8.80956 8.80286 8.81287C8.80956 8.81626 8.81643 8.81948 8.82322 8.82278C8.83001 8.82592 8.83671 8.82914 8.84358 8.83228C8.85029 8.83541 8.85707 8.83829 8.86386 8.84134C8.87065 8.84431 8.87735 8.84728 8.88414 8.85024C8.89084 8.85304 8.89771 8.85567 8.9045 8.85846C8.91129 8.86117 8.91799 8.86397 8.92486 8.8666C8.93157 8.86931 8.93836 8.87168 8.94514 8.87431C8.95185 8.87685 8.95855 8.87931 8.96542 8.88177C8.97213 8.88422 8.979 8.88651 8.98578 8.88889C8.99249 8.89117 8.99927 8.89346 9.00606 8.89575C9.01285 8.89795 9.01964 8.90007 9.02642 8.90219C9.03313 8.90439 9.03983 8.90651 9.0467 8.90855C9.05341 8.91058 9.06019 8.91253 9.06698 8.91439C9.07377 8.91643 9.08056 8.91829 9.08734 8.92024C9.09405 8.92202 9.10084 8.9238 9.10762 8.92558C9.11433 8.92736 9.12112 8.92914 9.1279 8.93083L9.14826 8.93575C9.15505 8.93728 9.16176 8.93897 9.16863 8.9405C9.17533 8.94202 9.18212 8.94338 9.18891 8.9449C9.19569 8.94634 9.2024 8.94787 9.20918 8.94922C9.21589 8.95058 9.22276 8.95177 9.22955 8.95312C9.23633 8.95439 9.24304 8.95575 9.24983 8.95702C9.25653 8.95829 9.2634 8.95931 9.2701 8.9605C9.27689 8.96168 9.28368 8.96287 9.29047 8.96389C9.29717 8.96499 9.30404 8.966 9.31083 8.96702L9.33111 8.96999L9.35139 8.9727L9.37175 8.97524L9.39211 8.97761L9.41231 8.97973C9.41909 8.98041 9.4258 8.98117 9.43267 8.98185C9.43937 8.98244 9.44624 8.98295 9.45303 8.98355L9.47331 8.98524L9.49359 8.9866L9.51395 8.98787L9.53431 8.98906C9.54102 8.98931 9.5478 8.98956 9.55451 8.98982C9.5613 8.99016 9.568 8.9905 9.57487 8.99067L9.59523 8.99126L9.61551 8.99168L9.63579 8.99202L9.65615 8.99211C9.66294 8.99211 9.66964 8.99219 9.67643 8.99219L9.69679 8.99185L9.71707 8.99151L9.73735 8.99109L9.75771 8.9905L9.77807 8.98982L9.79835 8.9888L9.81863 8.9877L9.83899 8.98668L9.85927 8.98524L9.87955 8.9838L9.88758 8.98329L9.89991 8.98228L9.92028 8.98067L9.94047 8.9788L9.96083 8.97685L9.9812 8.97482L10.0015 8.9727L10.0218 8.97041L10.0421 8.96804L10.0625 8.96558L10.0827 8.96304L10.103 8.96033L10.1234 8.95753L10.1437 8.95465L10.164 8.9516L10.1843 8.94846L10.2047 8.94516L10.225 8.94177L10.2452 8.93838L10.2656 8.93473L10.2859 8.93109L10.3062 8.92728L10.3265 8.92329L10.3469 8.91922L10.3672 8.91507L10.3874 8.91075L10.4078 8.90634L10.4281 8.90185L10.4484 8.89719L10.4687 8.89245L10.489 8.88761L10.5094 8.88253L10.5296 8.87753L10.5499 8.87228L10.5703 8.86694L10.5906 8.86151L10.6109 8.85592L10.6312 8.85024L10.6516 8.84439L10.6719 8.83846L10.6921 8.83245L10.7125 8.82626L10.7328 8.8199L10.7531 8.81363L10.7734 8.80702L10.7938 8.80041L10.814 8.79363L10.8343 8.78677L10.8547 8.77973L10.875 8.77261L10.8953 8.76541L10.9156 8.75804L10.936 8.75058L10.9562 8.74304L10.9766 8.73533L10.9969 8.72753L11.0172 8.71956L11.0375 8.71151L11.0578 8.70338L11.0782 8.69507L11.0984 8.68668L11.1188 8.67812L11.1391 8.66948L11.1594 8.66084L11.1797 8.65194L11.2001 8.64295L11.2203 8.63397L11.2407 8.62482L11.261 8.6155L11.2813 8.60617L11.3016 8.5966L11.3219 8.58711L11.3423 8.57728L11.3626 8.56753L11.3829 8.5577L11.4032 8.54762L11.4236 8.53761L11.4438 8.52744L11.4641 8.51711L11.4843 8.50685V9.41999L11.4641 9.42507L11.4438 9.43007L11.4236 9.43507L11.4032 9.4399L11.3829 9.44473L11.3626 9.44948L11.3423 9.45422L11.3219 9.45889L11.3016 9.46346L11.2813 9.46804L11.261 9.47261L11.2407 9.47702L11.2203 9.48143L11.2001 9.48584L11.1797 9.49016L11.1594 9.49448L11.1391 9.49872L11.1188 9.50295L11.0984 9.50711L11.0782 9.51126L11.0578 9.51533L11.0375 9.51939L11.0172 9.52346L10.9969 9.52744L10.9766 9.53134L10.9562 9.53516L10.936 9.53906L10.9156 9.54287L10.8953 9.54668L10.875 9.55041L10.8547 9.55406L10.8343 9.5577L10.814 9.56126L10.7938 9.5649L10.7734 9.56838L10.7531 9.57185L10.7328 9.57533L10.7125 9.57863L10.6921 9.58202L10.6719 9.58541L10.6516 9.58855L10.6312 9.59185L10.6109 9.59499L10.5906 9.59812L10.5703 9.60126L10.5499 9.60431L10.5296 9.60728L10.5094 9.61016L10.489 9.61304L10.4687 9.616L10.4484 9.6188L10.4281 9.62151L10.4078 9.62422L10.3874 9.62685L10.3672 9.62948L10.3469 9.63202L10.3265 9.63448L10.3062 9.63702L10.2859 9.63939L10.2656 9.64177L10.2452 9.64406L10.225 9.64626L10.2047 9.64846L10.1843 9.65058L10.164 9.65261L10.1437 9.65465L10.1234 9.6566L10.103 9.65846L10.0827 9.66033L10.0625 9.66211L10.0421 9.6638L10.0218 9.6655L10.0015 9.66702L9.9812 9.66855L9.96083 9.66999L9.94047 9.67134L9.92028 9.67261L9.89991 9.67389L9.87955 9.67499L9.85927 9.67617L9.83899 9.67711L9.82857 9.6777L9.81863 9.67804L9.79835 9.67897L9.77807 9.67982L9.75771 9.68067L9.73735 9.68143L9.71707 9.68211L9.69679 9.68287L9.67643 9.68346L9.65615 9.68405L9.63579 9.68465L9.61551 9.68516L9.59523 9.68558L9.57487 9.686L9.55451 9.68643L9.53431 9.68668L9.51395 9.68694L9.49359 9.68728L9.47331 9.68745L9.45303 9.68761L9.43267 9.6877H9.41231H9.39211H9.37175L9.35139 9.68761L9.33111 9.68736L9.31083 9.68719L9.29047 9.68694L9.2701 9.6866L9.24983 9.68626L9.22955 9.68592L9.20918 9.68541L9.18891 9.68482L9.16863 9.68439L9.14826 9.68372L9.1279 9.68304L9.10762 9.68236L9.08734 9.68151L9.06698 9.68067L9.0467 9.67973L9.02642 9.67872L9.00606 9.6777L8.98578 9.67668L8.96542 9.6755L8.94514 9.67431L8.92486 9.67312L8.9045 9.67177L8.88414 9.67024L8.86386 9.66889L8.84358 9.66728L8.82322 9.66575L8.80286 9.66414L8.78266 9.66236L8.7623 9.66058L8.74194 9.6588L8.72166 9.65685L8.70138 9.6549L8.68102 9.65278L8.66074 9.65066L8.64046 9.64855L8.6201 9.64617L8.59974 9.64389L8.57946 9.64143L8.55918 9.63888L8.53882 9.63643L8.51845 9.63372L8.49818 9.631L8.4779 9.62821L8.45753 9.62524L8.43726 9.62236L8.41698 9.61931L8.39661 9.61609L8.37634 9.61295L8.35597 9.60965L8.33569 9.60617L8.31542 9.60278L8.29505 9.59923L8.27469 9.5955L8.25441 9.59177L8.23413 9.58787L8.21377 9.58397L8.19349 9.57999L8.17313 9.57584L8.15285 9.5716L8.13249 9.56728L8.11221 9.56278L8.09193 9.55821L8.07157 9.55363L8.05129 9.54889L8.03101 9.54405L8.01065 9.53906L7.99029 9.53397L7.97001 9.52872L7.94973 9.52346L7.92937 9.51804L7.90909 9.51244L7.88881 9.50685L7.86845 9.50092L7.84809 9.49507L7.82781 9.48897L7.80753 9.48287L7.78717 9.47643L7.76689 9.47016L7.74653 9.46346C7.73982 9.46117 7.73295 9.45897 7.72625 9.45677C7.71938 9.45448 7.71267 9.45211 7.70597 9.44982L7.68561 9.44287L7.66533 9.43558C7.65854 9.43321 7.65175 9.43075 7.64505 9.42838C7.63818 9.42592 7.63139 9.42329 7.62469 9.42083L7.60432 9.41321C7.59754 9.41067 7.59083 9.40795 7.58404 9.40533L7.56377 9.39744L7.5434 9.38922L7.52304 9.38092L7.50276 9.37236L7.48248 9.36372L7.46212 9.35482L7.44184 9.34575L7.42156 9.3366L7.4012 9.32702L7.38092 9.31744C7.37405 9.31414 7.36735 9.31083 7.36064 9.30744L7.34028 9.29744L7.31992 9.28711L7.29964 9.2766C7.29285 9.27295 7.28607 9.26939 7.27936 9.26583C7.27249 9.26211 7.26579 9.25838 7.259 9.25473L7.23872 9.24346L7.21836 9.23194L7.19808 9.22016C7.19129 9.21617 7.18451 9.21219 7.1778 9.20812C7.17093 9.20406 7.16423 9.1999 7.15744 9.19575L7.13716 9.18304C7.13037 9.1788 7.1235 9.17448 7.11688 9.17024C7.11001 9.16584 7.10322 9.16143 7.09652 9.15694L7.07616 9.14329C7.06945 9.13872 7.06258 9.13414 7.05588 9.12948L7.0356 9.11524C7.02873 9.11033 7.02194 9.1055 7.01524 9.10058C7.00845 9.09567 7.00158 9.09067 6.99488 9.08567C6.98817 9.08058 6.98138 9.0755 6.97468 9.07041C6.96781 9.06516 6.96102 9.0599 6.95432 9.05456C6.94745 9.04922 6.94066 9.0438 6.93396 9.03838C6.92717 9.03287 6.92038 9.02736 6.91368 9.02185C6.89886 9.00956 6.88429 8.99719 6.87006 8.98465V13.9687H6.91368H6.93396H6.95432H6.97468H6.99488H7.01524H7.0356H7.05588H7.07616H7.09652H7.11688H7.13716H7.15744H7.1778H7.19808H7.21836H7.23872H7.259H7.27936H7.29964H7.31992H7.34028H7.36064H7.38092H7.4012H7.42156H7.44184H7.46212H7.48248H7.50276H7.52304H7.5434H7.56377H7.58404H7.60432H7.62469H7.64505H7.66533H7.68561H7.70597H7.72625H7.74653H7.76689H7.78717H7.80753H7.82781H7.84809H7.86845H7.88881H7.90909H7.92937H7.94973H7.97001H7.99029H8.01065H8.03101H8.05129H8.07157H8.09193H8.11221H8.13249H8.15285H8.17313H8.19349H8.21377H8.23413H8.25441H8.27469H8.29505H8.31542H8.33569H8.35597H8.37634H8.39661H8.41698H8.43726H8.45753H8.4779H8.49818H8.51845H8.53882H8.55918H8.57946H8.59974H8.6201H8.64046H8.66074H8.68102H8.70138H8.72166H8.74194H8.7623H8.78266H8.80286H8.82322H8.84358H8.86386H8.88414H8.9045H8.92486H8.94514H8.96542H8.98578H9.00606H9.02642H9.0467H9.06698H9.08734H9.10762H9.1279H9.14826H9.16863H9.18891H9.20918H9.22955H9.24983H9.2701H9.29047H9.31083H9.33111H9.35139H9.37175H9.39211H9.41231H9.43267H9.45303H9.47331H9.49359H9.51395H9.53431H9.55451H9.57487H9.59523H9.61551H9.63579H9.65615H9.67643H9.69679H9.71707H9.73735H9.75771H9.77807H9.79835H9.81863H9.83899H9.85927H9.87955H9.89991H9.92028H9.94047H9.96083H9.96216C9.96853 13.9687 9.97482 13.9685 9.9812 13.9685L10.0015 13.9681C10.0083 13.9681 10.015 13.968 10.0218 13.9678C10.0285 13.9675 10.0353 13.9673 10.0421 13.967C10.0489 13.9667 10.0557 13.9666 10.0625 13.9663L10.0827 13.9651L10.103 13.9638C10.1098 13.9634 10.1166 13.963 10.1234 13.9624C10.1302 13.962 10.1369 13.9612 10.1437 13.9607L10.164 13.9588C10.1707 13.9582 10.1775 13.9574 10.1843 13.9568C10.1911 13.956 10.1979 13.9552 10.2047 13.9544C10.2114 13.9536 10.2183 13.9529 10.225 13.952C10.2317 13.9512 10.2385 13.9502 10.2452 13.9492L10.2656 13.9463C10.2723 13.9453 10.2792 13.9444 10.2859 13.9434C10.2927 13.9423 10.2995 13.9411 10.3062 13.9399C10.3129 13.9388 10.3197 13.9377 10.3265 13.9365L10.3469 13.9328L10.3672 13.9287C10.3739 13.9274 10.3807 13.9262 10.3874 13.9247C10.3942 13.9233 10.401 13.9217 10.4078 13.9202L10.4281 13.9157L10.4484 13.9109C10.4551 13.9093 10.4619 13.9075 10.4687 13.9058C10.4755 13.9041 10.4823 13.9025 10.489 13.9008C10.4959 13.899 10.5026 13.897 10.5094 13.8951C10.5161 13.8933 10.5229 13.8914 10.5296 13.8896L10.5499 13.8835L10.5703 13.8774C10.5771 13.8752 10.5839 13.8733 10.5906 13.8712C10.5974 13.869 10.6041 13.8667 10.6109 13.8644C10.6176 13.8621 10.6245 13.8599 10.6312 13.8576L10.6516 13.8506L10.6719 13.8432C10.6786 13.8407 10.6854 13.8383 10.6921 13.8357C10.699 13.8331 10.7057 13.8304 10.7125 13.8278C10.7193 13.8252 10.7261 13.8226 10.7328 13.8199C10.7396 13.8171 10.7463 13.8143 10.7531 13.8115L10.7734 13.803L10.7938 13.7942L10.814 13.7851C10.8208 13.782 10.8276 13.779 10.8343 13.7758C10.8412 13.7727 10.8479 13.7693 10.8547 13.7661C10.8615 13.7629 10.8683 13.7597 10.875 13.7563C10.8818 13.753 10.8886 13.7496 10.8953 13.7462C10.9021 13.7426 10.9089 13.7392 10.9156 13.7357C10.9224 13.7322 10.9292 13.7286 10.936 13.725L10.9562 13.7141L10.9766 13.7027L10.9969 13.6912C11.0037 13.6872 11.0105 13.6833 11.0172 13.6793C11.024 13.6752 11.0307 13.6711 11.0375 13.6669C11.0443 13.6629 11.0511 13.6588 11.0578 13.6546C11.0646 13.6503 11.0714 13.646 11.0782 13.6417C11.0849 13.6373 11.0917 13.633 11.0984 13.6286C11.1053 13.6241 11.112 13.6195 11.1188 13.6149C11.1256 13.6103 11.1324 13.6058 11.1391 13.6013C11.1459 13.5966 11.1527 13.5917 11.1594 13.5869C11.1662 13.5821 11.173 13.5774 11.1797 13.5724C11.1866 13.5675 11.1933 13.5624 11.2001 13.5574C11.2068 13.5524 11.2136 13.5474 11.2203 13.5423C11.2272 13.537 11.2339 13.5318 11.2407 13.5264C11.2474 13.5212 11.2543 13.5158 11.261 13.5104C11.2679 13.5051 11.2746 13.4994 11.2813 13.4938C11.288 13.4883 11.2949 13.4828 11.3016 13.4771C11.3084 13.4713 11.3151 13.4655 11.3219 13.4596C11.3287 13.4537 11.3356 13.448 11.3423 13.4419C11.3491 13.4359 11.3559 13.4296 11.3626 13.4235C11.3694 13.4174 11.3761 13.4113 11.3829 13.4049C11.3897 13.3985 11.3964 13.392 11.4032 13.3855C11.41 13.3791 11.4168 13.3724 11.4236 13.3658C11.4303 13.3591 11.4371 13.3524 11.4438 13.3456C11.4506 13.3386 11.4574 13.3317 11.4641 13.3246C11.4709 13.3176 11.4777 13.3106 11.4845 13.3035C11.4913 13.2962 11.4981 13.2886 11.5048 13.2813C11.5115 13.2738 11.5183 13.2663 11.5251 13.2587C11.5319 13.2511 11.5386 13.2432 11.5454 13.2353C11.5522 13.2274 11.559 13.2194 11.5657 13.2114C11.5726 13.2031 11.5793 13.195 11.586 13.1868C11.5928 13.1783 11.5995 13.1696 11.6063 13.1612C11.6131 13.1524 11.62 13.1437 11.6267 13.1349C11.6335 13.1259 11.6403 13.1169 11.647 13.1078C11.6538 13.0985 11.6606 13.0891 11.6673 13.0796C11.6741 13.07 11.6809 13.0604 11.6876 13.0506C11.6944 13.0407 11.7013 13.0308 11.7079 13.0207C11.7148 13.0102 11.7216 12.9997 11.7283 12.9892C11.735 12.9785 11.7418 12.9676 11.7485 12.9568C11.7554 12.9456 11.7622 12.9344 11.7688 12.9231C11.7758 12.9114 11.7826 12.8997 11.7892 12.888C11.796 12.8757 11.8028 12.8633 11.8095 12.8509C11.8163 12.8381 11.8231 12.8252 11.8297 12.8122C11.8367 12.7988 11.8435 12.7852 11.8501 12.7715C11.8571 12.7574 11.8638 12.743 11.8705 12.7286C11.8773 12.7135 11.8841 12.6984 11.8907 12.6831C11.8977 12.667 11.9045 12.6508 11.911 12.6346C11.9181 12.6173 11.9248 12.5998 11.9314 12.5823C11.9383 12.5635 11.9451 12.5446 11.9517 12.5257C11.9587 12.5052 11.9656 12.4845 11.9719 12.4636C11.9791 12.4406 11.9859 12.4174 11.9923 12.3941C11.9996 12.3675 12.0063 12.3407 12.0127 12.3137C12.0201 12.2817 12.0269 12.2493 12.0329 12.2168C12.041 12.174 12.0478 12.1307 12.0532 12.0871C12.0646 11.9964 12.0704 11.904 12.0704 11.8101V1.01694H12.0532Z" fill="#E9324F"/>
</svg>
