<svg width="22" height="15" viewBox="0 0 22 15" fill="none" xmlns="http://www.w3.org/2000/svg">
<path fill-rule="evenodd" clip-rule="evenodd" d="M7.91327 2.11989H13.6833V12.7809H7.91327V2.11989Z" fill="#FF5F00"/>
<path fill-rule="evenodd" clip-rule="evenodd" d="M8.27959 7.45036C8.27959 5.28427 9.26874 3.36303 10.7891 2.11988C9.67173 1.21577 8.26127 0.66954 6.72259 0.66954C3.07738 0.66954 0.128235 3.70208 0.128235 7.45036C0.128235 11.1987 3.07738 14.2312 6.72259 14.2312C8.26127 14.2312 9.67173 13.685 10.7891 12.7808C9.26874 11.5565 8.27959 9.61646 8.27959 7.45036Z" fill="#EB001B"/>
<path fill-rule="evenodd" clip-rule="evenodd" d="M21.4682 7.45036C21.4682 11.1987 18.5191 14.2312 14.8739 14.2312C13.3352 14.2312 11.9247 13.685 10.8074 12.7808C12.3461 11.5377 13.3169 9.61646 13.3169 7.45036C13.3169 5.28427 12.3277 3.36303 10.8074 2.11988C11.9247 1.21577 13.3352 0.66954 14.8739 0.66954C18.5191 0.66954 21.4682 3.72091 21.4682 7.45036Z" fill="#F79E1B"/>
</svg>
