<svg width="57" height="20" viewBox="0 0 57 20" fill="none" xmlns="http://www.w3.org/2000/svg">
<path fill-rule="evenodd" clip-rule="evenodd" d="M53.1986 7.84318C53.1986 7.23376 53.6798 6.73669 54.2562 6.73669C54.8498 6.73669 55.3151 7.23376 55.3151 7.84318C55.3151 8.45261 54.8498 8.94968 54.2562 8.94968C53.6798 8.96556 53.1986 8.46849 53.1986 7.84318ZM54.2562 8.70909C54.7057 8.70909 55.0586 8.32438 55.0586 7.85906C55.0586 7.39375 54.6898 7.00904 54.2562 7.00904C53.808 7.00904 53.4551 7.39375 53.4551 7.85906C53.4551 8.32438 53.808 8.70909 54.2562 8.70909ZM54.1121 8.34025H53.8874V7.36199H54.2892C54.3686 7.36199 54.4651 7.36199 54.5298 7.40962C54.6092 7.45847 54.6422 7.55374 54.6422 7.65022C54.6422 7.76258 54.5774 7.85906 54.4809 7.89081L54.658 8.32438H54.4174L54.2733 7.93845H54.1121V8.34025ZM54.1121 7.79433H54.2403C54.2892 7.79433 54.3368 7.79433 54.3686 7.77846C54.4003 7.76258 54.4174 7.71495 54.4174 7.6661C54.4174 7.63434 54.4003 7.58671 54.3686 7.57083C54.3368 7.55374 54.2733 7.55374 54.2403 7.55374H54.128L54.1121 7.79433Z" fill="#B7B7B7"/>
<path fill-rule="evenodd" clip-rule="evenodd" d="M38.0423 0.449438L37.754 2.34245C37.1287 2.00537 36.6634 1.87714 36.1663 1.87714C34.851 1.87714 33.9204 3.22423 33.9204 5.13312C33.9204 6.44724 34.5457 7.24963 35.5728 7.24963C36.0051 7.24963 36.4863 7.10552 37.0799 6.8002L36.7746 8.78969C36.1175 8.98144 35.701 9.04617 35.204 9.04617C33.2951 9.04617 32.108 7.60259 32.108 5.29311C32.108 2.18124 33.7445 0 36.1016 0C36.4057 0 36.6793 0.0317539 36.904 0.0964827L37.6417 0.289448C37.8334 0.368833 37.8823 0.384709 38.0423 0.449438Z" fill="#B7B7B7"/>
<path fill-rule="evenodd" clip-rule="evenodd" d="M32.1568 1.7489C32.108 1.73302 32.0445 1.73302 31.9797 1.73302C31.4021 1.73302 31.0662 2.03713 30.5203 2.88715L30.6803 1.81241H29.0767L27.9861 8.88495H29.7667C30.4079 4.55545 30.5679 3.81778 31.4179 3.81778C31.4668 3.81778 31.4827 3.81778 31.5462 3.81778C31.7074 2.96776 31.915 2.34245 32.2203 1.76478L32.1568 1.7489Z" fill="#B7B7B7"/>
<path fill-rule="evenodd" clip-rule="evenodd" d="M21.5547 8.78969C21.0735 8.94968 20.6888 9.02907 20.2882 9.02907C19.3906 9.02907 18.8935 8.48437 18.8935 7.47435C18.8935 7.28139 18.9094 7.05667 18.9411 6.83195L19.0535 6.14313L19.1329 5.58134L19.9035 0.75354H21.6671L21.4594 1.79653H22.373L22.1165 3.51246H21.2176L20.7535 6.46311C20.7377 6.59135 20.7206 6.68783 20.7206 6.75256C20.7206 7.1214 20.9135 7.28139 21.3312 7.28139C21.5388 7.28139 21.6829 7.26551 21.8112 7.21788L21.5547 8.78969Z" fill="#B7B7B7"/>
<path fill-rule="evenodd" clip-rule="evenodd" d="M14.5628 4.04128C14.5628 4.94016 14.9792 5.54959 15.9099 6.0149C16.6158 6.36786 16.744 6.479 16.744 6.8002C16.744 7.23376 16.4228 7.44138 15.7328 7.44138C15.2039 7.44138 14.7228 7.36199 14.1451 7.15315L13.9045 8.78969L13.9851 8.80557L14.3063 8.86908C14.4186 8.88495 14.5628 8.91671 14.7704 8.93381C15.1881 8.96556 15.5251 8.99731 15.7486 8.99731C17.6099 8.99731 18.4758 8.24377 18.4758 6.64021C18.4758 5.67782 18.1228 5.10015 17.2252 4.66781C16.4875 4.31485 16.4069 4.23425 16.4069 3.89717C16.4069 3.51246 16.6951 3.32072 17.2728 3.32072C17.6258 3.32072 18.0911 3.36835 18.5405 3.43185L18.797 1.79653C18.3317 1.71593 17.6417 1.65242 17.2411 1.65242C15.2357 1.65242 14.5469 2.72716 14.5628 4.04128Z" fill="#B7B7B7"/>
<path fill-rule="evenodd" clip-rule="evenodd" d="M52.1715 8.86907H50.4873L50.5679 8.18026C50.0867 8.72496 49.5738 8.96556 48.9326 8.96556C47.6331 8.96556 46.7831 7.79433 46.7831 6.03077C46.7831 3.67245 48.0984 1.68417 49.6702 1.68417C50.359 1.68417 50.8732 1.98949 51.3703 2.64655L51.755 0.159988H53.5027L52.1715 8.86907ZM49.5579 7.21788C50.392 7.21788 50.9685 6.23962 50.9685 4.82779C50.9685 3.93014 50.6326 3.43185 50.022 3.43185C49.2208 3.43185 48.6431 4.42721 48.6431 5.80606C48.6431 6.73669 48.9484 7.21788 49.5579 7.21788Z" fill="#B7B7B7"/>
<path fill-rule="evenodd" clip-rule="evenodd" d="M27.1678 8.72496C26.5584 8.91671 25.9819 9.01319 25.3407 9.01319C23.3671 9.01319 22.3253 7.92257 22.3253 5.83781C22.3253 3.4001 23.6395 1.62066 25.4201 1.62066C26.8796 1.62066 27.8102 2.63068 27.8102 4.20249C27.8102 4.71544 27.7455 5.22838 27.5855 5.95017H24.0572C24.0413 6.06253 24.0413 6.11138 24.0413 6.17489C24.0413 7.00904 24.5701 7.4255 25.5972 7.4255C26.2225 7.4255 26.8002 7.28139 27.4414 6.97728L27.1678 8.72496ZM26.1737 4.50659C26.1908 4.36248 26.1908 4.23424 26.1908 4.15364C26.1908 3.57596 25.8854 3.24011 25.3566 3.24011C24.7948 3.24011 24.3942 3.68954 24.233 4.50659H26.1737Z" fill="#B7B7B7"/>
<path fill-rule="evenodd" clip-rule="evenodd" d="M7.44137 8.86908H5.67781L6.68782 2.18124L4.4101 8.86908H3.20712L3.06301 2.23009L1.98826 8.86908H0.337067L1.71591 0.17709H4.26599L4.33072 5.56546L6.06252 0.17709H8.82143L7.44137 8.86908Z" fill="#B7B7B7"/>
<path fill-rule="evenodd" clip-rule="evenodd" d="M12.0127 5.72545C11.8197 5.70957 11.7404 5.6937 11.6121 5.6937C10.6009 5.6937 10.1038 6.06253 10.1038 6.76844C10.1038 7.202 10.3603 7.49023 10.745 7.49023C11.4509 7.49023 11.9809 6.76844 12.0127 5.72545ZM13.2951 8.86907H11.8197L11.8515 8.13141C11.4033 8.72496 10.8097 8.98143 9.99145 8.98143C9.02907 8.98143 8.37201 8.19614 8.37201 7.05667C8.37201 5.32486 9.52614 4.33073 11.4839 4.33073C11.6915 4.33073 11.948 4.3466 12.2044 4.37836C12.2533 4.13776 12.2692 4.04128 12.2692 3.91304C12.2692 3.44895 11.9651 3.27186 11.1309 3.27186C10.6339 3.27186 10.0562 3.35246 9.65437 3.4807L9.43088 3.56009L9.26966 3.60894L9.51026 2.02125C10.392 1.7489 10.9856 1.63654 11.628 1.63654C13.151 1.63654 13.9533 2.35833 13.9533 3.70542C13.9533 4.05838 13.9204 4.31485 13.808 5.11602L13.4563 7.63434L13.3916 8.08378L13.3439 8.43551L13.3122 8.69321L13.2951 8.86907Z" fill="#B7B7B7"/>
<path fill-rule="evenodd" clip-rule="evenodd" d="M41.1053 5.72545C40.9294 5.70957 40.8329 5.6937 40.7047 5.6937C39.6947 5.6937 39.1805 6.06253 39.1805 6.76844C39.1805 7.202 39.4382 7.49023 39.8229 7.49023C40.5447 7.49023 41.0735 6.76844 41.1053 5.72545ZM42.3888 8.86907H40.9135L40.9453 8.13141C40.4958 8.72496 39.9023 8.98143 39.0852 8.98143C38.1228 8.98143 37.4646 8.19614 37.4646 7.05667C37.4646 5.32486 38.6199 4.33073 40.5764 4.33073C40.7682 4.33073 41.0418 4.3466 41.2982 4.37836C41.3459 4.13776 41.3617 4.04128 41.3617 3.91304C41.3617 3.44895 41.0576 3.27186 40.2235 3.27186C39.7264 3.27186 39.1487 3.35247 38.7482 3.4807L38.4917 3.54421L38.3305 3.59306L38.5711 2.00537C39.4541 1.73302 40.0476 1.62066 40.6888 1.62066C42.2118 1.62066 43.0142 2.34245 43.0142 3.68954C43.0142 4.04128 42.9824 4.29897 42.87 5.10014L42.5012 7.60259L42.4524 8.05203L42.4047 8.40376L42.373 8.64436L42.3888 8.86907Z" fill="#B7B7B7"/>
<path fill-rule="evenodd" clip-rule="evenodd" d="M47.3449 1.7489C47.296 1.73302 47.2325 1.73302 47.1678 1.73302C46.5901 1.73302 46.2531 2.03713 45.7084 2.88715L45.8696 1.81241H44.2648L43.1742 8.88495H44.9548C45.596 4.55545 45.756 3.81778 46.606 3.81778C46.6549 3.81778 46.6549 3.81778 46.7355 3.81778C46.8955 2.96776 47.1202 2.34245 47.4084 1.76478L47.3449 1.7489Z" fill="#B7B7B7"/>
<path fill-rule="evenodd" clip-rule="evenodd" d="M39.9023 15.7499C39.9023 17.3534 39.4052 18.3 38.6199 18.3C38.0423 18.3158 37.7052 17.6746 37.7052 16.7281C37.7052 15.6058 38.2181 14.3222 39.0205 14.3222C39.6776 14.3222 39.9023 15.0122 39.9023 15.7499ZM41.6512 15.7658C41.6512 13.9851 40.7682 12.5904 39.117 12.5904C37.2081 12.5904 35.9734 14.2745 35.9734 16.7599C35.9734 18.5405 36.7111 20 38.5076 20C40.32 20 41.6512 18.7164 41.6512 15.7658Z" fill="#B7B7B7"/>
<path fill-rule="evenodd" clip-rule="evenodd" d="M36.5352 11.3556L36.2616 13.2474C35.6693 12.9116 35.2516 12.7821 34.7863 12.7821C33.5516 12.7821 32.6857 14.1304 32.6857 16.0381C32.6857 17.3534 33.2633 18.1558 34.2257 18.1558C34.6422 18.1558 35.0916 18.0105 35.6363 17.7064L35.3481 19.6947C34.7387 19.8876 34.3368 19.9511 33.8728 19.9511C32.0921 19.9511 30.9697 18.5088 30.9697 16.1981C30.9697 13.0874 32.5086 10.9062 34.7069 10.9062C34.9951 10.9062 35.2357 10.938 35.4446 11.0027L36.1175 11.1944C36.3422 11.2592 36.3899 11.275 36.5352 11.3556Z" fill="#B7B7B7"/>
<path fill-rule="evenodd" clip-rule="evenodd" d="M25.5801 12.638C25.5325 12.6221 25.469 12.6221 25.4042 12.6221C24.8595 12.6221 24.5542 12.9275 24.0413 13.7763L24.2013 12.7027H22.7101L21.6988 19.7753H23.3512C23.9448 15.4446 24.1048 14.7069 24.8913 14.7069C24.9389 14.7069 24.9389 14.7069 25.0195 14.7228C25.1636 13.8727 25.3725 13.2474 25.6448 12.6698L25.5801 12.638Z" fill="#B7B7B7"/>
<path fill-rule="evenodd" clip-rule="evenodd" d="M47.1996 19.7106H45.6278L45.7084 19.0217C45.2589 19.5664 44.7777 19.807 44.1683 19.807C42.9653 19.807 42.1642 18.6358 42.1642 16.8723C42.1642 14.5151 43.3989 12.5256 44.8583 12.5256C45.4995 12.5256 45.9966 12.831 46.446 13.5039L46.8149 11.0186H48.4514L47.1996 19.7106ZM44.746 18.0435C45.5325 18.0435 46.0613 17.0652 46.0613 15.6534C46.0613 14.7557 45.756 14.2745 45.1795 14.2745C44.426 14.2745 43.896 15.2528 43.896 16.6475C43.896 17.5782 44.1842 18.0435 44.746 18.0435Z" fill="#B7B7B7"/>
<path fill-rule="evenodd" clip-rule="evenodd" d="M10.0562 19.6788C9.49439 19.8718 8.94969 19.9682 8.35614 19.9682C6.51197 19.9682 5.54959 18.8776 5.54959 16.7916C5.54959 14.371 6.78432 12.5745 8.43552 12.5745C9.79971 12.5745 10.6656 13.5686 10.6656 15.1563C10.6656 15.6693 10.6009 16.1822 10.4568 16.904H7.16903C7.15316 17.0164 7.15316 17.0652 7.15316 17.1287C7.15316 17.947 7.65023 18.3635 8.61261 18.3635C9.20616 18.3635 9.73498 18.2193 10.3285 17.9152L10.0562 19.6788ZM9.12556 15.4604C9.12556 15.3163 9.14143 15.1881 9.14143 15.1087C9.14143 14.531 8.85321 14.1939 8.35614 14.1939C7.82609 14.1939 7.45726 14.6434 7.29727 15.4604H9.12556Z" fill="#B7B7B7"/>
<path fill-rule="evenodd" clip-rule="evenodd" d="M29.7509 19.6788C29.1891 19.8718 28.6444 19.9682 28.0508 19.9682C26.1908 19.9682 25.2272 18.8776 25.2272 16.7916C25.2272 14.371 26.4631 12.5745 28.1143 12.5745C29.4773 12.5745 30.3603 13.5686 30.3603 15.1563C30.3603 15.6693 30.2956 16.1822 30.1515 16.904H26.8637C26.8478 17.0164 26.8478 17.0652 26.8478 17.1287C26.8478 17.947 27.3449 18.3635 28.3073 18.3635C28.9008 18.3635 29.4297 18.2193 30.0232 17.9152L29.7509 19.6788ZM28.8202 15.4604C28.8361 15.3163 28.8361 15.1881 28.8361 15.1087C28.8361 14.531 28.5479 14.1939 28.0508 14.1939C27.5208 14.1939 27.1519 14.6434 26.992 15.4604H28.8202Z" fill="#B7B7B7"/>
<path fill-rule="evenodd" clip-rule="evenodd" d="M52.8456 19.6788C52.2679 19.8718 51.7232 19.9682 51.1456 19.9682C49.3014 19.9682 48.3232 18.8776 48.3232 16.7916C48.3232 14.371 49.5579 12.5745 51.2262 12.5745C52.5891 12.5745 53.4551 13.5686 53.4551 15.1563C53.4551 15.6693 53.3903 16.1822 53.2462 16.904H49.9585C49.9426 17.0164 49.9426 17.0652 49.9426 17.1287C49.9426 17.947 50.4397 18.3635 51.402 18.3635C51.9956 18.3635 52.5244 18.2193 53.118 17.9152L52.8456 19.6788ZM51.915 15.4604C51.915 15.3163 51.9309 15.1881 51.9309 15.1087C51.9309 14.531 51.6426 14.1939 51.1456 14.1939C50.6155 14.1939 50.2479 14.6434 50.0867 15.4604H51.915Z" fill="#B7B7B7"/>
<path fill-rule="evenodd" clip-rule="evenodd" d="M5.14778 12.9592C4.8278 12.7345 4.37836 12.5586 3.76893 12.5586C3.09477 12.5586 2.56595 12.7027 2.56595 13.4074C2.56595 14.6593 5.00366 14.1939 5.00366 16.8881C5.00366 19.3417 3.4001 19.9841 1.94064 19.9841C1.29946 19.9841 0.5447 19.7753 0 19.5188L0.400586 17.7223C0.737665 18.0276 1.39595 18.2352 1.95652 18.2352C2.48534 18.2352 3.28774 18.0911 3.28774 17.1764C3.28774 15.7499 0.850024 16.2787 0.850024 13.7763C0.850024 11.4839 2.27772 10.8097 3.65657 10.8097C4.42599 10.8097 5.16488 10.9221 5.58134 11.2103L5.14778 12.9592Z" fill="#B7B7B7"/>
<path fill-rule="evenodd" clip-rule="evenodd" d="M14.8998 19.6788C14.5628 19.8388 14.0975 19.9511 13.4233 19.9511C11.9809 19.9511 11.0821 18.5088 11.0821 16.744C11.0821 14.4345 12.3815 12.6063 14.2892 12.6063C14.7069 12.6063 15.3481 12.7821 15.8451 13.0716L15.4775 14.7557C15.1233 14.5151 14.7545 14.371 14.3698 14.371C13.488 14.371 12.8468 15.1881 12.8468 16.6317C12.8468 17.4658 13.3122 18.1558 14.0339 18.1558C14.4663 18.1558 14.7704 18.0594 15.1404 17.8505L14.8998 19.6788Z" fill="#B7B7B7"/>
<path fill-rule="evenodd" clip-rule="evenodd" d="M21.0894 17.8981C21.01 18.5088 20.9294 19.1011 20.8818 19.7264H19.2941L19.4223 18.5882H19.4064C18.9094 19.3588 18.3964 19.8876 17.4817 19.8876C16.4875 19.8876 15.9416 18.8288 15.9416 17.4658C15.9416 16.9846 15.9734 16.7281 16.0699 15.9905L16.5193 12.7186H18.2999L17.8188 16.0064C17.7699 16.3593 17.7064 16.7123 17.7064 17.0811C17.7064 17.4976 17.8981 17.9152 18.3793 17.8823C19.1011 17.8823 19.5347 17.0005 19.6629 15.9587L20.16 12.7186H21.8759L21.0894 17.8981Z" fill="#B7B7B7"/>
<path fill-rule="evenodd" clip-rule="evenodd" d="M54.4968 19.647H54.2245V18.4758H53.8398V18.2193H54.8815V18.4758H54.4968V19.647Z" fill="#B7B7B7"/>
<path fill-rule="evenodd" clip-rule="evenodd" d="M56.2775 19.647H56.021V18.4599L55.7804 19.647H55.5239L55.2833 18.4599V19.647H55.0269V18.2193H55.4274L55.6522 19.3417H55.668L55.8928 18.2193H56.2775V19.647Z" fill="#B7B7B7"/>
</svg>
