<svg width="56" height="20" viewBox="0 0 56 20" fill="none" xmlns="http://www.w3.org/2000/svg">
<path d="M26.7106 13.9415C24.9213 13.9415 23.5557 12.8063 23.5557 10.7866C23.5557 8.7669 24.9889 7.60299 26.8021 7.60299C28.6153 7.60299 29.9421 8.75786 29.9421 10.7579C29.9421 12.7579 28.4802 13.9415 26.7101 13.9415H26.7106ZM26.7393 9.09846C25.9219 9.09846 25.5084 9.75307 25.5084 10.7722C25.5084 11.7914 25.9315 12.422 26.7494 12.422C27.5674 12.422 27.9804 11.7871 27.9804 10.7579C27.9804 9.72859 27.5573 9.09367 26.7393 9.09367V9.09846ZM38.1177 10.2523C38.1177 9.54072 37.8101 9.29059 37.3098 9.29059C36.9533 9.30017 36.6073 9.43428 36.3482 9.67537V13.7536H34.3764V10.2517C34.3764 9.54019 34.0592 9.29006 33.5589 9.29006C33.206 9.28935 32.8646 9.41574 32.5972 9.6461V13.7531H30.6254L30.635 7.73178H32.6068V8.50134C33.1358 7.95317 33.7228 7.61629 34.5014 7.62587C35.2465 7.62587 35.8868 7.98244 36.1752 8.69346C36.7234 8.03886 37.4163 7.63545 38.2337 7.63545C39.3977 7.63545 40.0901 8.41459 40.0805 9.69399L40.0709 13.7722H38.0996L38.1177 10.2523ZM42.072 6.97766C41.3503 6.97766 40.908 6.60246 40.908 5.92922C40.908 5.22672 41.3604 4.87122 42.072 4.87122C42.7835 4.87122 43.2359 5.22779 43.2359 5.93881C43.2359 6.61204 42.8032 6.97766 42.072 6.97766ZM41.0906 7.74721H43.0624L43.0528 13.7685H41.081L41.0906 7.74721ZM46.2263 13.9697C45.4088 13.9697 44.3317 13.7871 43.7063 13.4407L44.0911 12.017C44.762 12.3721 45.5063 12.5663 46.2651 12.5844C46.8037 12.5844 47.073 12.421 47.073 12.1033C47.073 11.7573 46.7361 11.6413 46.0629 11.4875C44.6776 11.2086 43.8027 10.7084 43.8027 9.54498C43.8027 8.42896 44.7739 7.63971 46.4285 7.63971C47.2172 7.63971 48.2561 7.87068 48.8426 8.15913L48.4488 9.56414C47.7755 9.21821 46.9676 9.02555 46.3998 9.02555C45.9187 9.02555 45.6686 9.18521 45.6686 9.46728C45.6686 9.78447 46.0342 9.91964 46.6882 10.0538C48.0826 10.3614 48.9235 10.8233 48.9197 12.016C48.9293 13.0836 47.9868 13.9691 46.2268 13.9691L46.2263 13.9697ZM52.7968 12.5327C53.4514 12.5327 54.1433 12.3018 54.7393 11.9558L54.9309 13.4758C54.3349 13.7834 53.494 13.9569 52.6127 13.9569C50.6026 13.9569 49.2944 12.8409 49.2944 10.8403C49.2944 8.89783 50.6313 7.62747 52.5169 7.63652C54.2002 7.63652 55.1236 8.64663 55.1236 10.1378C55.1236 10.455 55.0853 10.9266 54.9985 11.1863L51.2279 11.2438V11.2725C51.2854 12.0899 51.824 12.5327 52.7957 12.5327H52.7968ZM53.2971 10.1474C53.2971 9.43588 53.0086 9.01225 52.3923 9.0032C51.7191 9.0032 51.3056 9.58968 51.2375 10.2634L53.296 10.2539L53.2971 10.1474Z" fill="#B7B7B7"/>
<path d="M17.0734 2.92656C13.1714 -0.975519 6.82863 -0.975519 2.92656 2.92656C-0.975519 6.82863 -0.975519 13.1714 2.92656 17.0734C6.82863 20.9755 13.1714 20.9755 17.0734 17.0734C20.9755 13.1714 20.9755 6.82863 17.0734 2.92656ZM15.513 10.2193L10.2203 15.512C10.0926 15.6397 9.89409 15.6397 9.76636 15.512L4.47366 10.2193C4.34593 10.0915 4.34593 9.89303 4.47366 9.7653L9.76636 4.47259C9.89409 4.34486 10.0926 4.34486 10.2203 4.47259L15.513 9.7653C15.6408 9.89303 15.6408 10.0915 15.513 10.2193Z" fill="#B7B7B7"/>
<path d="M20.0048 9.97819C20.0048 7.32465 18.9547 4.77063 17.0819 2.8973C15.4928 1.30815 12.9244 1.29378 11.3352 2.88293L9.77431 4.42949C9.832 4.37529 9.90803 4.34488 9.98719 4.34434C10.0729 4.34724 10.1542 4.38286 10.2144 4.44386L17.0532 11.2975C17.4309 11.6747 17.7305 12.1225 17.9349 12.6156C18.1393 13.1086 18.2445 13.6371 18.2445 14.1708C18.2445 14.7046 18.1393 15.2331 17.9349 15.7261C17.7305 16.2191 17.4309 16.667 17.0532 17.0442C18.9404 15.1708 20.0048 12.6312 20.0048 9.97819ZM2.91215 17.0245C4.50129 18.6136 7.06968 18.6136 8.67319 17.0389L10.2198 15.4636C10.1064 15.5913 9.89353 15.5913 9.7658 15.4779L4.48746 10.1996C4.41667 10.1426 4.38794 10.0437 4.38794 9.9585C4.38794 9.87335 4.41614 9.7882 4.47309 9.73125L2.94036 11.264C1.35121 12.8531 1.33685 15.4215 2.91215 17.025V17.0245Z" fill="#B7B7B7"/>
</svg>
