<svg width="40" height="20" viewBox="0 0 40 20" fill="none" xmlns="http://www.w3.org/2000/svg">
<g clip-path="url(#clip0_1_285)">
<path d="M2.13663 7.00834L0 0.458393H0.914241L1.9329 3.68626C2.2143 4.56994 2.4575 5.36704 2.63195 6.13485H2.65232C2.83695 5.37086 3.10944 4.54957 3.39976 3.69517L4.50754 0.459668H5.41032L3.06615 7.00834H2.13663Z" fill="#B7B7B7"/>
<path d="M5.86736 4.81059C5.88773 5.96804 6.62499 6.44299 7.48066 6.44299C7.92733 6.45698 8.37173 6.374 8.78326 6.19978L8.92332 6.81734C8.42795 7.02335 7.89474 7.12271 7.35842 7.10893C5.90938 7.10893 5.0448 6.15522 5.0448 4.73674C5.0448 3.31827 5.88137 2.20029 7.25018 2.20029C8.78708 2.20029 9.19582 3.55256 9.19582 4.41587C9.19399 4.54923 9.18378 4.68233 9.16525 4.81441L5.86736 4.81059ZM8.37452 4.19813C8.38598 3.65442 8.15169 2.80767 7.18907 2.80767C6.32448 2.80767 5.94504 3.60476 5.87628 4.19813H8.37452Z" fill="#B7B7B7"/>
<path d="M9.86556 3.7703C9.86556 3.21768 9.85538 2.74018 9.82736 2.30216H10.5786L10.6066 3.22532H10.6448C10.8587 2.58866 11.3732 2.1952 11.9487 2.1952C12.0303 2.19423 12.1116 2.20408 12.1906 2.22449V3.03177C12.0949 3.01072 11.9971 3.00089 11.899 3.00249C11.2968 3.00249 10.8702 3.45961 10.7531 4.10008C10.7284 4.23198 10.7152 4.36574 10.7136 4.4999V7.00834H9.86556V3.7703Z" fill="#B7B7B7"/>
<path d="M13.6472 0.981727C13.6472 1.12221 13.5914 1.25694 13.4921 1.35628C13.3928 1.45562 13.258 1.51142 13.1175 1.51142C12.9771 1.51142 12.8423 1.45562 12.743 1.35628C12.6437 1.25694 12.5878 1.12221 12.5878 0.981727C12.5864 0.911068 12.5994 0.840859 12.626 0.775376C12.6526 0.709894 12.6922 0.650506 12.7425 0.600831C12.7927 0.551157 12.8526 0.512233 12.9184 0.486432C12.9842 0.46063 13.0545 0.448491 13.1252 0.450752C13.1954 0.448562 13.2654 0.460933 13.3306 0.487088C13.3958 0.513244 13.4549 0.552615 13.5042 0.602728C13.5535 0.65284 13.5919 0.712608 13.6169 0.778271C13.642 0.843934 13.6532 0.914073 13.6498 0.984272L13.6472 0.981727ZM12.6961 2.30598H13.553V7.00961H12.6961V2.30598Z" fill="#B7B7B7"/>
<path d="M14.6673 7.00834V2.9541H14.0065V2.30343H14.6673V2.07933C14.6673 1.41848 14.8138 0.816197 15.211 0.436749C15.5218 0.147868 15.9328 -0.00876581 16.357 -2.06725e-06C16.6062 -0.000823609 16.8533 0.0454016 17.0854 0.136244L16.9695 0.797096C16.7977 0.722613 16.6117 0.686546 16.4245 0.691412C15.6962 0.691412 15.5128 1.32807 15.5128 2.05259V2.30725H16.6486V2.95792H15.5128V7.00834H14.6673Z" fill="#B7B7B7"/>
<path d="M18.4441 0.981728C18.4441 1.12221 18.3883 1.25694 18.289 1.35628C18.1896 1.45562 18.0549 1.51142 17.9144 1.51142C17.7739 1.51142 17.6392 1.45562 17.5399 1.35628C17.4405 1.25694 17.3847 1.12221 17.3847 0.981728C17.3831 0.911126 17.3959 0.84094 17.4222 0.775416C17.4486 0.709892 17.4879 0.650393 17.5379 0.600517C17.5879 0.550642 17.6475 0.511427 17.7131 0.485247C17.7787 0.459067 17.8489 0.446467 17.9195 0.448207C17.9898 0.446018 18.0597 0.458389 18.1249 0.484544C18.1902 0.510699 18.2493 0.550071 18.2985 0.600183C18.3478 0.650295 18.3862 0.710064 18.4112 0.775727C18.4363 0.84139 18.4475 0.911529 18.4441 0.981728ZM17.4929 2.30343H18.3461V7.00706H17.4929V2.30343Z" fill="#B7B7B7"/>
<path d="M19.8548 4.81059C19.8752 5.96804 20.6125 6.44299 21.4681 6.44299C21.9148 6.45706 22.3592 6.37408 22.7707 6.19978L22.9172 6.81734C22.4218 7.02335 21.8886 7.12271 21.3523 7.10893C19.9032 7.10893 19.0386 6.15522 19.0386 4.73674C19.0386 3.31827 19.8752 2.20029 21.2427 2.20029C22.7796 2.20029 23.1871 3.55256 23.1871 4.41587C23.1858 4.54925 23.1756 4.68239 23.1565 4.81441L19.8548 4.81059ZM22.362 4.19813C22.3709 3.65442 22.1379 2.80767 21.1765 2.80767C20.312 2.80767 19.9338 3.60476 19.8637 4.19813H22.362Z" fill="#B7B7B7"/>
<path d="M27.9227 0.108231V5.79232C27.9227 6.21124 27.9316 6.68364 27.9609 7.00834H27.1969L27.1574 6.19214H27.1319C26.8696 6.71675 26.2979 7.11402 25.5288 7.11402C24.3918 7.11402 23.5183 6.15139 23.5183 4.72273C23.5081 3.15782 24.4809 2.19647 25.6269 2.19647C26.345 2.19647 26.8314 2.53772 27.0441 2.91589H27.0645V0.108231H27.9227ZM27.0657 4.2185C27.0674 4.09729 27.0546 3.97631 27.0275 3.85815C26.9663 3.57675 26.8104 3.32486 26.5859 3.14456C26.3613 2.96426 26.0817 2.86647 25.7937 2.86751C24.9024 2.86751 24.3841 3.64423 24.3841 4.68581C24.3841 5.63825 24.8489 6.42516 25.7746 6.42516C26.0684 6.42425 26.3531 6.32264 26.5811 6.13727C26.8091 5.9519 26.9667 5.69398 27.0275 5.40651C27.0557 5.28594 27.0685 5.1623 27.0657 5.03852V4.2185Z" fill="#B7B7B7"/>
<path d="M31.0881 7.00834C31.1084 6.68619 31.1263 6.21124 31.1263 5.79232V0.108231H31.9705V3.06233H31.9896C32.2914 2.53772 32.8351 2.19774 33.594 2.19774C34.7603 2.19774 35.5854 3.17056 35.5778 4.59795C35.5778 6.27873 34.5171 7.11529 33.4679 7.11529C32.7867 7.11529 32.243 6.85299 31.8928 6.23161H31.8648L31.824 7.00834H31.0881ZM31.9794 5.12255C31.982 5.22719 31.9952 5.33128 32.0189 5.43324C32.0893 5.71865 32.2531 5.9723 32.4843 6.15388C32.7155 6.33546 33.0008 6.43453 33.2947 6.43534C34.186 6.43534 34.7234 5.707 34.7234 4.62723C34.7234 3.68498 34.237 2.87769 33.3227 2.87769C33.02 2.88333 32.7277 2.98948 32.4919 3.17942C32.2561 3.36936 32.0901 3.63231 32.0201 3.92691C31.9914 4.03941 31.9747 4.15466 31.9705 4.2707L31.9794 5.12255Z" fill="#B7B7B7"/>
<path d="M36.5135 2.30343L37.5437 5.08436C37.6506 5.39505 37.7678 5.76431 37.8442 6.04699H37.8633C37.9524 5.76558 38.0479 5.41032 38.1663 5.06525L39.1009 2.30343H40.0063L38.7189 5.65608C38.1077 7.26937 37.6888 8.09575 37.1056 8.60126C36.8094 8.87341 36.4481 9.06461 36.0564 9.15642L35.8425 8.437C36.1166 8.34659 36.3708 8.20437 36.5912 8.01808C36.9016 7.76065 37.1479 7.43459 37.3106 7.06564C37.3449 7.00221 37.3677 6.93325 37.3781 6.86191C37.3707 6.78456 37.3509 6.7089 37.3196 6.6378L35.5802 2.30852L36.5135 2.30343Z" fill="#B7B7B7"/>
<path d="M14.1862 10.2171L11.5976 16.7734L10.5484 11.1988C10.5061 10.9253 10.3673 10.6759 10.1571 10.4959C9.94687 10.3158 9.67915 10.2169 9.40236 10.2171H5.15712L5.09982 10.496C5.9695 10.687 6.95759 10.9913 7.55732 11.3147C7.92404 11.5159 8.02845 11.6903 8.14687 12.164L10.1358 19.8497H12.7703L16.8067 10.2171H14.1862Z" fill="#B7B7B7"/>
<path d="M17.8736 10.2158L15.8134 19.8485H18.3065L20.3617 10.2158H17.8736Z" fill="#B7B7B7"/>
<path d="M23.6326 12.8872C23.6403 12.5422 23.9701 12.1755 24.6895 12.0774C25.5325 11.9995 26.381 12.1485 27.147 12.5091L27.5837 10.4718C26.8388 10.1911 26.0497 10.0458 25.2536 10.0427C22.7897 10.0427 21.0593 11.3542 21.0414 13.226C21.0287 14.61 22.2804 15.3906 23.2226 15.8464C24.1942 16.3176 24.5214 16.6193 24.5151 17.0446C24.5151 17.6915 23.7409 17.9742 23.0265 17.9843C21.7723 18.0047 21.0465 17.6469 20.4659 17.3782L20.0164 19.4881C20.5958 19.7543 21.6717 19.9873 22.7884 19.9975C25.4013 19.9975 27.1177 18.7025 27.1177 16.7021C27.1279 14.1555 23.6034 14.0192 23.6275 12.8822" fill="#B7B7B7"/>
<path d="M30.8462 16.4385L32.1705 12.821L32.9154 16.4385H30.8462ZM31.7923 10.2171C31.5648 10.2149 31.342 10.281 31.1526 10.4071C30.9632 10.5331 30.8161 10.7131 30.7304 10.9238L26.9932 19.8485H29.6111L30.1306 18.4096H33.3139L33.6131 19.8485H35.9229L33.92 10.2171H31.7923Z" fill="#B7B7B7"/>
</g>
<defs>
<clipPath id="clip0_1_285">
<rect width="40.0025" height="20" fill="white"/>
</clipPath>
</defs>
</svg>
