<svg width="66" height="23" viewBox="0 0 66 23" fill="none" xmlns="http://www.w3.org/2000/svg">
<path fill-rule="evenodd" clip-rule="evenodd" d="M25.058 0.890264L16.4186 21.9766H10.7785L6.52916 5.14881C6.27045 4.11345 6.04495 3.73252 5.26179 3.3002C3.97902 2.58639 1.86528 1.91899 0 1.50214L0.126927 0.890264H9.19948C10.358 0.890264 11.3988 1.67783 11.6602 3.03887L13.9071 15.243L19.4557 0.890264H25.058ZM47.1457 15.0932C47.1684 9.52835 39.6211 9.22255 39.6754 6.73527C39.6911 5.97919 40.3943 5.1756 41.9352 4.96732C42.7022 4.86621 44.8062 4.78776 47.1938 5.91068L48.1325 1.44026C46.85 0.965126 45.1948 0.506012 43.1445 0.506012C37.8738 0.506012 34.1619 3.37423 34.1301 7.47698C34.0985 10.5154 36.7785 12.2049 38.7996 13.2142C40.8785 14.2496 41.5758 14.9106 41.5661 15.8361C41.5534 17.2488 39.9112 17.8739 38.3767 17.8996C35.6966 17.9424 34.1368 17.1579 32.8951 16.5686L31.9307 21.1891C33.1751 21.7753 35.4766 22.2827 37.8606 22.3084C43.4632 22.3084 47.1301 19.4761 47.1457 15.0932ZM61.0666 21.9766H66L61.6931 0.890264H57.1381C56.1194 0.890264 55.2539 1.50214 54.8718 2.43998L46.8694 21.9766H52.4688L53.5825 18.8283H60.4228L61.0666 21.9766ZM55.1135 14.5073L57.9242 6.58831L59.5378 14.5073H55.1135ZM32.679 0.890264L28.2695 21.9766H22.9375L27.347 0.890264H32.679Z" fill="#2A2A6D"/>
</svg>
